<?xml version="1.0" encoding="UTF-8"?>
<svg id="Laag_2" data-name="Laag 2" xmlns="http://www.w3.org/2000/svg" viewBox="0 0 3301.81 1595.33">
  <defs>
    <style>
      .cls-1 {
        fill: #9f5fd6;
        stroke: #9f5fd6;
        stroke-miterlimit: 10;
      }

      .cls-2 {
        fill: #9b5639;
      }

      .cls-3 {
        fill: #ad6653;
      }

      .cls-4 {
        fill: #650000;
      }

      .cls-5 {
        fill: #967660;
      }

      .cls-6 {
        fill: #fff;
      }

      .cls-7 {
        fill: #fefafb;
      }

      .cls-8 {
        fill: #d3a17f;
      }

      .cls-9 {
        opacity: .35;
      }

      .cls-10 {
        opacity: .5;
      }

      .cls-11 {
        opacity: .3;
      }

      .cls-12 {
        fill: #23b574;
      }
    </style>
  </defs>
  <g id="Layer_1" data-name="Layer 1">
    <g>
      <g>
        <path class="cls-6" d="M2973.92,1535.86s272.13,10.69,311.56-206.4c9.81-53.99-180.26,7.51-290.59-54.18-107.97-60.38-20.97,260.58-20.97,260.58Z"/>
        <g class="cls-11">
          <path class="cls-4" d="M3283.31,1339.87c-46.05,206.33-309.4,196-309.4,196,0,0-87.02-320.97,20.95-260.6,1.88,1.04,3.75,2.03,5.67,2.99,11.61,42.85,26.73,81.4,26.73,81.4,0,0,162.6,113.84,256.05-19.79Z"/>
        </g>
        <path class="cls-4" d="M2980.52,1551.92c-4.21,0-6.72-.09-7.23-.11-6.97-.27-12.95-5.04-14.78-11.77-.64-2.36-15.8-58.57-25.62-120.18-18.89-118.53-.68-148.16,14.67-160.14,9.94-7.76,27.57-13.78,55.11,1.63,53.68,30.02,129.06,28.82,189.64,27.84,52.37-.83,86.97-1.39,102.42,16.81,4.22,4.98,8.76,13.58,6.45,26.32-17.23,94.83-79.88,162.92-181.2,196.89-61.81,20.73-119.56,22.72-139.47,22.72ZM2971.32,1283.69c-1.61,0-3.04.34-4.12,1.19-3.49,2.72-20.03,21.8-2.79,129.95,6.96,43.64,16.91,85.38,21.86,105.07,22.09-.47,72.29-3.63,124.39-21.25,90.39-30.56,143.92-88.44,159.11-172.05.03-.17.05-.31.07-.43-8.17-6.18-47.85-5.54-77.02-5.08-64.38,1.04-144.54,2.32-205.73-31.89-3.4-1.9-10.55-5.51-15.77-5.51Z"/>
        <path class="cls-4" d="M3096.26,1414.33c-6.9,0-12.49-5.59-12.5-12.49,0-6.9,5.58-12.5,12.48-12.51,1.31,0,131.8-.98,179.06-67.13,4.01-5.62,11.82-6.92,17.44-2.91,5.62,4.01,6.92,11.82,2.91,17.44-54.74,76.64-193.5,77.6-199.38,77.6h0Z"/>
        <path class="cls-8" d="M1759.16,878s382.29-316.53,711.83-195.41c358.93,131.91,276.16,514.33,276.16,514.33,0,0,220.36,13.17,333.16,125.97,54.45,54.45,52.52,148.66,30.2,180.26-47.09,66.66-639.87,34.93-639.87,34.93,0,0-632.92,28.83-830.53-178.87-197.61-207.71,119.06-481.2,119.06-481.2Z"/>
        <g class="cls-11">
          <path class="cls-6" d="M2751.86,1166.1c-4.23-132.31-53.87-338.16-304.21-430.18-299.06-109.89-638.66,116.79-735.26,188.45,26.81-29.13,46.76-46.36,46.76-46.36,0,0,382.3-316.54,711.84-195.44,297.11,109.21,291.56,390.04,280.87,483.52Z"/>
        </g>
        <g class="cls-11">
          <path class="cls-4" d="M3110.5,1503.15c-47.08,66.68-639.86,34.91-639.86,34.91,0,0-632.92,28.85-830.55-178.84-61.37-64.52-73.14-135.35-60.17-202.38,7.98,37.31,26.65,74.42,60.17,109.61,197.63,207.73,830.55,178.88,830.55,178.88,0,0,592.78,31.72,639.86-34.91,3.31-4.67,6.14-10.73,8.46-17.8,11.77,44.61,5.83,90.34-8.46,110.53Z"/>
        </g>
        <path class="cls-4" d="M2761.7,1561.58c-148.74,0-290.47-7.49-291.91-7.57-8.8-.47-15.56-7.99-15.09-16.79.47-8.8,8.04-15.51,16.79-15.09,1.48.08,149.62,7.84,301.5,7.51,285.35-.75,320.36-29.88,324.48-35.71,18.61-26.34,19.39-111.92-28.45-159.77-107.11-107.11-320.68-121.19-322.83-121.32-4.65-.28-8.95-2.58-11.76-6.29-2.81-3.71-3.87-8.47-2.88-13.02.2-.92,19.75-94.46-3.72-202.04-31.08-142.49-119.35-241.38-262.35-293.94-317.26-116.59-692.39,189.62-696.15,192.72-6.79,5.63-16.85,4.68-22.47-2.11-5.62-6.79-4.68-16.85,2.11-22.47,3.96-3.29,98.72-81.17,235.75-145.29,182.88-85.57,352.93-103.84,491.76-52.81,192.23,70.65,259.87,212.06,282.78,318.25,18.72,86.78,11.49,163.22,6.57,196.66,55.79,5.76,227.67,31,325.76,129.09,59.07,59.07,60.09,160.92,31.94,200.76-9.35,13.23-34.19,48.39-350.59,49.21-3.75,0-7.51.01-11.25.01Z"/>
        <path class="cls-8" d="M2505.71,1540.49c-49.56,9.18-358.67,14.92-734.43,17.24-300.5,1.92-643.65,1.64-930.7-.88-319.61-2.75-569.63-8.18-613.76-16.36-86.43-16-182.59-57.82-182.39-178.36.08-41.5,9.9-117.99,114-166.75,131.2-61.37,281.78-26.41,508.18-12.21,32.96,2.07,67.55,3.71,103.9,4.55l1165.2,87.86,29.97,2.27,17.24,1.32s341.28-65.92,569.91,60.01c154.5,85.11,83.27,177.2-47.12,201.3Z"/>
        <g class="cls-11">
          <path class="cls-4" d="M2505.71,1540.49c-49.56,9.18-358.67,14.92-734.43,17.24-8.18.04-16.36.12-24.58.16-7.1.04-14.21.08-21.35.12-9.42.04-18.87.08-28.33.16-18.75.08-37.63.16-56.58.24-9.86.04-19.71.08-29.57.12-19.79.08-39.66.12-59.61.2-9.98.04-19.99.08-30.01.08-102.63.24-206.93.24-309.6,0-5.59-.04-11.17-.04-16.76-.04-33.44-.08-66.72-.2-99.67-.32-5.15-.04-10.29-.04-15.4-.08-4.11,0-8.18,0-12.21-.04-12.17-.04-24.3-.12-36.39-.16-28.21-.16-56.1-.32-83.63-.48-13.61-.12-27.09-.2-40.5-.28-5.99-.08-11.93-.12-17.88-.16-16.36-.12-32.6-.24-48.64-.4-319.61-2.75-569.63-8.18-613.76-16.36-86.43-16-182.59-57.82-182.39-178.36.04-11.73.84-26.25,4.35-42.18,19.55,88.7,102.51,122.38,178.04,136.38,39.62,7.3,245.03,12.45,517.76,15.4-48.88-60.09-77.45-134.43-79.6-223.69-.52-21.43,0-43.09,1.64-64.88,32.96,2.07,67.55,3.71,103.9,4.55l1165,79.8c.12,2.67.2,5.39.2,8.06.92,70.39-23.34,139.89-68.03,197.31,331.14-2.67,592.78-8.22,638.02-16.56,53.67-9.94,97.32-31.4,119.3-59.13,47,65.32-18.43,124.65-119.3,143.29Z"/>
        </g>
        <path class="cls-4" d="M770.39,1193.03c-89.93,6.17-180.18.5-269.23-6.7-44.56-3.34-88.91-7.06-132.92-8.42-43.96-1.12-87.72.13-129.76,8.69l-15.72,3.33c-5.23,1.14-10.23,3.02-15.36,4.48l-15.29,4.69-14.77,6.05c-19.9,7.64-38.47,17.97-54.97,30.42-16.42,12.5-30.78,27.39-40.98,44.74-2.43,4.39-5.07,8.69-6.99,13.34-2.26,4.49-3.9,9.26-5.64,13.98-3.12,9.58-5.48,19.45-6.81,29.6-1.17,10.1-1.93,20.65-1.23,30.96.34,5.14.34,10.36.9,15.44l2.4,15.1c4.24,19.82,12.34,38.38,24.46,54.2,12.06,15.87,27.96,28.95,45.87,39.27,17.93,10.35,37.77,18.05,58.32,23.92,5.09,1.6,10.34,2.79,15.56,4.07,5.19,1.36,10.51,2.37,15.8,3.45,5.37,1.28,10.41,1.7,15.53,2.36,2.59.3,5.04.69,7.74.92l8.22.61c10.93.85,21.9,1.64,33.05,2.12,11.1.55,22.17,1.22,33.33,1.58,44.53,1.86,89.23,3.02,133.91,4.09,89.38,2.06,178.85,3.35,268.31,4.4,178.94,2.04,357.92,2.89,536.9,3.21,178.98.21,357.97-.09,536.94-1.33,89.48-.58,178.96-1.43,268.42-2.6,89.45-1.2,178.91-2.64,268.23-5.18,44.62-1.3,89.38-2.77,133.45-5.64l16.43-1.22c5.36-.49,10.29-1.25,15.46-1.83,10.33-1.59,20.87-4.06,30.98-6.98,10.19-2.86,20.15-6.34,29.69-10.51,9.54-4.13,18.8-8.81,27.17-14.4,16.75-10.95,30.76-25.56,35.24-41.57,2.16-7.97,1.93-16.15-.49-24.38-2.41-8.23-7.08-16.38-13.02-24.02-12.05-15.34-28.93-28.34-46.8-39.68-8.96-5.7-18.34-10.96-28.02-15.83-9.49-5.18-19.45-9.5-29.3-14.01-19.99-8.44-40.33-16.22-61.3-22.33-10.36-3.39-21.03-5.89-31.56-8.79l-15.99-3.71c-5.32-1.27-10.67-2.45-16.07-3.4-21.47-4.4-43.26-7.36-65.06-10.04-21.86-2.37-43.82-3.87-65.82-5.02-88.09-4.11-176.4.34-265.64,3.91h-.14c-2.96.12-5.45-2.18-5.57-5.14-.1-2.45,1.47-4.58,3.69-5.31,21.79-7.13,43.85-11.99,66.15-16.13,11.14-2.06,22.33-3.83,33.55-5.3,11.22-1.58,22.48-2.79,33.76-3.8,11.28-1.07,22.58-1.92,33.9-2.44,11.32-.69,22.66-1,34-1.23,22.69-.5,45.4.42,68.1,1.49,45.37,2.85,90.66,8.45,135.41,17.65,11.21,2.12,22.31,4.95,33.46,7.48,11.05,3.03,22.19,5.66,33.11,9.21,22.01,6.43,43.56,14.63,64.77,23.61,10.5,4.79,21.07,9.41,31.25,14.94,10.3,5.2,20.47,10.89,30.39,17.2,19.75,12.63,39.11,27.08,54.88,46.98,7.76,9.98,14.61,21.46,18.53,34.73,3.97,13.18,4.44,28.19.62,41.84-3.85,13.65-11.2,25.48-19.76,35.23-8.61,9.79-18.45,17.73-28.71,24.52-10.26,6.83-21.07,12.28-32.05,17.03-10.98,4.78-22.2,8.69-33.54,11.89-11.38,3.27-22.69,5.92-34.46,7.76-5.94.72-12.08,1.62-17.87,2.15l-17.04,1.27c-45.25,2.95-89.97,4.4-134.83,5.71-89.63,2.55-179.18,3.98-268.73,5.19-89.55,1.17-179.09,2.03-268.63,2.6-179.07,1.24-358.14,1.54-537.2,1.33-179.07-.32-358.13-1.17-537.22-3.21-89.55-1.06-179.1-2.34-268.69-4.41-44.8-1.07-89.6-2.23-134.5-4.11-11.2-.37-22.48-1.05-33.73-1.6-11.21-.48-22.56-1.29-33.94-2.18l-8.52-.63c-2.87-.24-5.96-.7-8.93-1.05-5.98-.77-12.09-1.4-17.63-2.71-5.67-1.16-11.35-2.24-16.99-3.71-5.65-1.39-11.31-2.68-16.91-4.42-22.44-6.42-44.67-14.95-65.53-26.98-20.8-11.97-40.23-27.75-55.27-47.54-15.14-19.7-25.29-43.12-30.34-67.06l-2.87-18.05c-.67-6.02-.72-12.03-1.09-18.05-.74-12.03.07-23.91,1.48-36.02,1.57-12.06,4.39-24.04,8.22-35.72,2.11-5.79,4.16-11.59,6.9-17.13,2.4-5.69,5.57-10.99,8.59-16.36,12.52-21.31,29.94-39.15,48.97-53.78,19.12-14.63,40.06-26.3,61.84-34.89l16.26-6.75,16.75-5.3c5.61-1.66,11.14-3.7,16.82-5.02l17.07-3.86c45.65-9.85,92.01-11.82,137.41-10.6,45.49,1.12,90.36,5.12,134.96,9.58,22.3,2.35,44.55,4.42,66.75,6.97l66.56,7.18c44.34,5.24,88.7,9.23,133.23,14.94h.07c2.93.38,4.99,3.06,4.62,5.99-.33,2.57-2.44,4.48-4.93,4.65Z"/>
        <g>
          <path class="cls-8" d="M1955.7,1133.66c6.98,288.95-275.77,432.56-628.65,441.08-352.88,8.52-642.27-121.28-649.24-410.22-6.69-276.93,165.47-597.56,570.11-633.12,48.39-26.18,113.75-71.09,149.57-136.1,11.21-20.33,40.93-18.14,48.83,3.75,10.49,29.1,20.35,67.39,1.9,117.59,53.59-27.64,106.75-58.9,124.1-75.25,18.58-17.5,49.09-4.29,48.83,21.22-.28,24.67-7.92,77.16-17.16,121.23,235,104.17,346.59,337.31,351.72,549.82Z"/>
          <g class="cls-11">
            <path class="cls-4" d="M1327.07,1574.73c-352.89,8.54-642.29-121.26-649.28-410.23-.44-17.72-.12-35.59.92-53.59,19.39,275.2,303.57,398.89,648.36,390.6,334.09-8.1,605.38-137.26,627.33-396.26.64,9.5,1.08,18.99,1.32,28.41,6.98,288.93-275.8,432.57-628.65,441.07Z"/>
          </g>
          <g class="cls-11">
            <path class="cls-6" d="M1935.52,1267.54c5.56-27.42,8.07-56.45,7.33-87.1-4.83-199.87-119.33-429.32-328.43-542.58-23.77-12.88-36.6-39.54-31.37-66.07,5.9-29.92,10.71-58.04,10.89-74.36.26-25.51-15.9-26.76-34.48-9.26-13.57,12.78-49.01,34.68-89.44,56.83-12.39,6.79-27.54-3.28-25.66-17.28,4.45-33.2-3.05-60.12-10.89-81.89-7.9-21.89-20.63-27.1-37.51,3.75-23.75,43.41-65.85,74.47-105.6,98.1-31.79,18.9-67.19,30.74-103.76,36.27-272.13,41.15-429.62,217.49-491.33,413.6,53.07-225.69,228.06-437.62,552.65-466.14,48.39-26.18,113.75-71.09,149.57-136.1,11.21-20.33,40.93-18.14,48.83,3.75,10.49,29.1,20.35,67.39,1.9,117.59,53.59-27.64,106.75-58.9,124.1-75.25,18.58-17.5,49.09-4.29,48.83,21.22-.28,24.67-7.92,77.16-17.16,121.23,235,104.17,346.59,337.31,351.72,549.82,1.18,48.75-5.89,93.36-20.18,133.88Z"/>
          </g>
          <path class="cls-7" d="M1828.57,1097.62c2.03,84.2-21.3,175.45-96.07,247.32-76.4,73.52-206.54,126.85-418.3,131.96h-.03c-209.54,5.06-341.53-40.91-421.67-109.41-80.1-68.47-108.38-159.5-110.43-244.61-.42-17.3.6-34.32,2.96-50.89,20.69-146.65,144.92-261.07,297.81-264.76,83.62-2.02,160.34,29.46,217.14,82.22,54.22-55.44,129.3-90.59,212.92-92.61,151.01-3.65,279.25,101.88,309.14,244.61v.03c3.84,18.15,6.05,36.92,6.52,56.13Z"/>
          <path class="cls-4" d="M1383.82,1127.33c.63,26.23-33.54,58.61-76.64,59.65-43.1,1.04-78.8-29.64-79.43-55.88-.63-26.23,34.04-38.08,77.14-39.12,43.1-1.04,78.3,9.12,78.94,35.36Z"/>
          <g class="cls-10">
            <path class="cls-7" d="M1339.4,1113.91c.15,6.13-13.9,13.85-31.45,14.27-17.55.42-31.95-6.61-32.1-12.74-.15-6.13,14.02-9.05,31.56-9.48,17.55-.42,31.84,1.81,31.98,7.94Z"/>
          </g>
          <path class="cls-5" d="M1197.89,1117.19c-10.9,91.55-83.84,114.78-178.86,155.66-59.61,25.64-100.2,62.47-126.53,94.65-80.1-68.47-108.38-159.5-110.43-244.61-.42-17.3.6-34.32,2.96-50.89,55.11-60.11,143.04-118.67,271.98-106.3,94.36,9.08,148.71,85.79,140.88,151.49Z"/>
          <path class="cls-5" d="M1828.57,1097.62c2.03,84.2-21.3,175.45-96.07,247.32-27.9-30.29-69.64-64.02-128.98-86.2-96.87-36.25-170.85-55.93-186.16-146.85-10.99-65.25,39.59-144.5,133.41-158.12,124.19-18.03,213.18,32.35,271.29,87.69v.03c3.84,18.15,6.05,36.92,6.52,56.13Z"/>
          <path class="cls-4" d="M1675.9,1092.73c-3.04,4.19-5.48,7.17-8.45,10.36-2.82,3.17-5.95,5.94-9.05,8.76-3.11,2.85-6.49,5.27-9.85,7.81-3.41,2.45-7.02,4.6-10.58,6.88-14.58,8.49-31.02,14.42-48.21,17.19-8.54,1.72-17.39,1.72-26.11,1.85-8.75-.82-17.51-1.31-25.9-3.86-17-3.85-32.44-12.29-45.27-22.95-7.39-6.14-8.41-17.11-2.27-24.5,3.5-4.22,8.58-6.36,13.67-6.28l3.23.07c3.58.08,6.94.42,10.24.78,3.29.35,6.41,1.11,9.68.99,3.2.16,6.32.4,9.38.72,3.04.46,6.17.02,9.17.24,6.01.47,11.98-.25,17.85-.2,5.9-.73,11.76-.83,17.64-1.98,11.74-1.73,23.6-4.47,35.63-8.26l9.07-2.95c2.96-1.16,6.13-2.07,9.14-3.25,3.13-1.04,6.12-2.3,9.23-3.43,2.99-1.08,6.36-2.58,8.86-3.18l5.2-1.25c9.1-2.2,18.25,3.4,20.45,12.49,1.2,5,.02,10.07-2.76,13.93Z"/>
          <path class="cls-4" d="M953.09,1084.46c2.53.48,5.96,1.82,9,2.75,3.16.99,6.21,2.1,9.39,2.98,3.07,1.04,6.28,1.78,9.29,2.8l9.21,2.51c12.2,3.2,24.18,5.37,35.99,6.53,5.92.86,11.79.68,17.71,1.12,5.87-.33,11.86.09,17.84-.67,2.98-.37,6.13-.08,9.15-.69,3.04-.46,6.15-.85,9.34-1.17,3.28-.04,6.35-.95,9.62-1.46,3.27-.52,6.62-1.03,10.19-1.28l3.13-.22c9.59-.67,17.9,6.56,18.56,16.15.38,5.47-1.87,10.58-5.61,14.04-12.3,11.26-27.32,20.44-44.11,25.11-8.25,2.95-16.98,3.86-25.68,5.1-8.71.3-17.55.72-26.17-.58-17.31-1.94-34.01-7.07-48.99-14.85-3.67-2.11-7.38-4.08-10.9-6.36-3.48-2.38-6.97-4.63-10.21-7.33-3.23-2.67-6.49-5.28-9.46-8.32-3.12-3.04-5.7-5.9-8.94-9.94-5.86-7.3-4.69-17.96,2.61-23.82,4.01-3.22,9.03-4.32,13.71-3.44l5.32,1.02Z"/>
          <path class="cls-4" d="M1397.59,1250.23c-6.28,6.11-12.41,10.43-19.2,14.78-6.77,4.1-13.86,7.81-21.34,10.75-14.88,6.02-31.19,9.62-48.08,9.76-17.18.06-33.63-3.66-48.51-9.77-7.45-3.07-14.53-6.8-21.27-10.94-6.76-4.38-12.85-8.75-19.08-14.82-4.92-4.79-5.03-12.66-.24-17.58,3.38-3.47,8.28-4.54,12.6-3.2l1.52.48c5.88,1.84,12.58,4.33,18.88,6.16,6.35,2.03,12.74,3.66,19.02,5.16,12.57,2.98,24.93,4.63,36.72,4.55,12.04-.19,24.54-1.9,37.16-4.81,6.3-1.46,12.73-3.01,19.09-5,6.34-1.72,13.05-4.17,18.94-5.89l1.62-.47c6.59-1.93,13.5,1.86,15.43,8.45,1.33,4.57-.08,9.29-3.26,12.4Z"/>
          <path class="cls-4" d="M1293.43,1591.1c-384.26,0-625.19-161.53-631.58-426.21-6.92-286.65,172.08-611.48,581.34-649.1,46.27-25.41,107.1-67.89,140.32-128.2,8.28-15.01,23.98-23.51,40.99-22.16,16.93,1.34,31.04,12.14,36.83,28.19,9.15,25.38,16.9,55.38,11.38,91.96,42.79-23.32,76.7-44.55,88.65-55.82,13.37-12.6,32.12-15.84,48.92-8.49,16.73,7.32,27,23.22,26.82,41.48-.26,22.84-6.4,68.33-14.96,111.82,107.27,50.37,196.16,131.54,257.63,235.41,57.34,96.9,89.12,208.69,91.88,323.28,6.57,272.39-240.28,447.67-644.22,457.42-11.44.28-22.8.41-34,.41ZM1421.09,397.22c-2.46,0-6.87.78-9.63,5.78-37.64,68.34-105.58,115.17-155.95,142.43-1.92,1.04-4.03,1.67-6.2,1.86-391.1,34.37-562.14,343.84-555.55,616.83,7.29,302.07,331.72,401.97,632.9,394.65,301.16-7.27,620.37-122.67,613.08-424.73h0c-4.53-187.6-96.81-426.82-342.23-535.62-6.88-3.05-10.7-10.5-9.15-17.87,9.33-44.5,16.56-95.29,16.82-118.13.08-7.66-5.36-10.87-7.7-11.9-1.86-.81-8.37-3.04-14.23,2.48-20.65,19.46-79.52,52.95-127.73,77.81-5.84,3.02-12.94,2.14-17.88-2.22-4.93-4.36-6.68-11.29-4.41-17.47,16.21-44.07,8.65-77.32-1.93-106.67-2.17-6-7.24-7.03-9.32-7.2-.25-.02-.55-.04-.89-.04Z"/>
        </g>
        <g>
          <path class="cls-12" d="M388.62,1173.22l-.51,40.17-4.16,328.7c.77,8.48-19.21,17.89-50.82,25.57-22.67,5.54-51.32,10.17-82.65,13-31.31,2.82-60.33,3.35-83.59,1.95-32.5-1.94-53.8-7.64-54.55-16.12l-64.15-330.24-6.19-31.89,346.62-31.14Z"/>
          <path class="cls-1" d="M388.59,1173.24l-.48,40.14-1.72,134.03-1.68,133.91-.12,9.74-.64,51.03c.76,8.5-19.23,17.88-50.83,25.58-13.85,3.39-29.93,6.42-47.56,8.94-11.13,1.6-22.9,2.95-35.07,4.03-31.32,2.83-60.33,3.39-83.59,1.96-18.35-1.08-33.16-3.39-42.69-6.66-7.3-2.59-11.49-5.75-11.85-9.42l-54.35-279.83-4.75-24.46-5.07-25.98-6.18-31.92,346.58-31.08Z"/>
          <path class="cls-4" d="M193.48,1595.33c-9.58,0-18.73-.26-27.32-.78-43.34-2.58-63.67-10.68-65.67-26.25l-72.78-374.69,373.04-33.5-4.83,381.66c.81,15.67-17.76,27.27-59.97,37.53-24.15,5.9-53.34,10.49-84.39,13.28-20.31,1.82-39.97,2.75-58.09,2.75ZM123.78,1562.69c2.77,1.61,13.12,6.15,43.81,7.97,23.65,1.43,51.95.76,81.83-1.92,29.88-2.69,57.84-7.08,80.86-12.69,29.89-7.27,39.27-13.58,41.71-15.66l4.48-354.06-320.21,28.76,67.51,347.59Z"/>
          <path class="cls-3" d="M392.8,1095.49c1.03,11.52-26.06,24.28-69,34.73-30.76,7.5-69.67,13.8-112.18,17.62-42.51,3.82-81.92,4.55-113.52,2.65-44.11-2.64-73.03-10.37-74.07-21.88-1.77-19.75,79.34-43.19,181.16-52.34,101.84-9.15,185.83-.54,187.6,19.22Z"/>
          <path class="cls-4" d="M134.12,1159.49c-12.8,0-25.02-.34-36.5-1.03-79.34-4.74-80.99-23.1-81.54-29.14-3.1-34.52,116.97-54.58,188.4-61,49.74-4.46,96.92-4.9,132.85-1.22,55.12,5.65,62.59,18.5,63.41,27.67.54,6.03,2.19,24.39-75.06,43.2-32.44,7.91-71.64,14.07-113.35,17.81-27.35,2.46-53.83,3.7-78.22,3.7ZM282.06,1080.6c-22.17,0-47.64,1.06-76.15,3.62-110.29,9.9-171.86,33.81-173.93,43.85,1.12,2.53,15.83,11.42,66.6,14.46,32.57,1.96,71.42,1.04,112.33-2.63,40.93-3.68,79.32-9.7,111-17.42,48.54-11.82,61.85-23,62.9-26.26-3.36-7.02-39.68-15.6-102.75-15.6ZM384.89,1096.38h.05-.05Z"/>
          <g class="cls-11">
            <path class="cls-4" d="M388.11,1213.38c.16-13.81.32-27.21.48-40.14l-42.81,3.83,42.85-3.87-.52,40.18Z"/>
          </g>
          <path class="cls-2" d="M409.05,1153.75c1.88,20.94-84.04,45.77-191.91,55.46-107.86,9.69-196.84.56-198.72-20.37l.26-2.82,5.36-57.41c1.03,11.52,29.96,19.25,74.07,21.88,31.6,1.9,71.01,1.17,113.52-2.65,42.51-3.82,81.42-10.12,112.18-17.62,42.93-10.45,70.03-23.22,69-34.73l15.49,55.53.75,2.73Z"/>
          <path class="cls-2" d="M392.8,1095.49l7.3,26.17,8.2,29.37.75,2.72c1.88,20.93-84.03,45.77-191.92,55.45-107.86,9.69-196.84.56-198.7-20.38l.24-2.82,2.67-28.58,2.69-28.82c1.05,11.51,29.97,19.25,74.07,21.88,31.61,1.89,71.02,1.16,113.52-2.64,42.51-3.82,81.42-10.14,112.18-17.62,42.94-10.45,70.03-23.21,68.99-34.74Z"/>
          <g class="cls-9">
            <path class="cls-6" d="M392.8,1095.49l7.3,26.17c-18.04,18.69-94.8,38.33-187.91,46.7-89.91,8.05-166.69,3.08-190.84-10.92l2.69-28.82c1.05,11.51,29.97,19.25,74.07,21.88,31.61,1.89,71.02,1.16,113.52-2.64,42.51-3.82,81.42-10.14,112.18-17.62,42.94-10.45,70.03-23.21,68.99-34.74Z"/>
          </g>
          <path class="cls-4" d="M133.01,1221.06c-61.36,0-120.34-7.14-122.53-31.51l-.06-.72,5.68-60.96,15.9.03c1.12,2.71,15.83,11.6,66.59,14.63,32.57,1.96,71.41,1.04,112.33-2.63,40.92-3.67,79.3-9.7,111-17.42,48.2-11.74,59.69-22.11,62.06-25.01,2.58-3.14,6.63-4.58,10.59-3.75,3.95.83,7.08,3.77,8.16,7.67l14.27,51.66c3.25,36.2-123.65,57.34-199.15,64.12-24.68,2.21-55.05,3.9-84.85,3.9ZM26.48,1188.4c4.32,10.18,72.22,23.43,189.95,12.86,117.61-10.56,182.06-35.66,184.61-46.53l-11.43-41c-11.8,8.63-33.22,16.76-63.92,24.24-32.46,7.91-71.65,14.07-113.35,17.81-41.7,3.75-81.36,4.67-114.71,2.67-36.03-2.15-56.04-7.11-67.2-12.46l-3.96,42.4Z"/>
          <path class="cls-3" d="M340.85,1040.99c.77,8.6-19.47,18.13-51.53,25.94-22.97,5.6-52.03,10.31-83.78,13.16-31.75,2.85-61.18,3.4-84.78,1.98-32.94-1.97-54.54-7.74-55.32-16.34-1.32-14.75,59.25-32.26,135.3-39.09,76.06-6.83,138.78-.4,140.11,14.35Z"/>
          <path class="cls-4" d="M147.65,1090.8c-9.6,0-18.77-.26-27.38-.77-54.67-3.27-62.02-15.03-62.79-23.6-1.08-12.02,13.02-21.84,44.37-30.9,26.03-7.52,60.9-13.51,98.17-16.85,14.9-1.34,145.74-12.11,148.77,21.59h0c.77,8.56-4.37,21.45-57.59,34.41-24.33,5.93-53.71,10.55-84.95,13.35-20.49,1.84-40.32,2.77-58.6,2.77ZM74.02,1064.91c3.51,2.52,16.11,7.32,47.21,9.18,24.22,1.45,53.12.77,83.59-1.96,30.46-2.73,59.03-7.22,82.6-12.96,30.27-7.37,41.82-14.35,44.83-17.45-7.98-6.23-52.17-14.21-130.81-7.14-78.64,7.06-120.7,22.78-127.43,30.33ZM333.19,1042.65h.05-.05Z"/>
          <path class="cls-2" d="M309.3,1062.73c.59,6.53-14.77,13.76-39.09,19.68-17.43,4.25-39.47,7.82-63.56,9.98-24.09,2.16-46.41,2.58-64.32,1.5-24.99-1.49-41.38-5.87-41.97-12.4-1.01-11.19,44.95-24.47,102.65-29.65,57.7-5.18,105.29-.3,106.3,10.89Z"/>
          <g class="cls-11">
            <path class="cls-4" d="M309.3,1062.73c.59,6.53-14.77,13.76-39.09,19.68-17.43,4.25-39.47,7.82-63.56,9.98-24.09,2.16-46.41,2.58-64.32,1.5-24.99-1.49-41.38-5.87-41.97-12.4-1.01-11.19,44.95-24.47,102.65-29.65,57.7-5.18,105.29-.3,106.3,10.89Z"/>
          </g>
          <path class="cls-4" d="M162.73,1102.45c-7.32,0-14.32-.2-20.89-.59-42.48-2.54-48.73-11.84-49.44-19.65-.93-10.34,9.88-18.19,35.04-25.46,19.87-5.74,46.44-10.3,74.84-12.85,28.39-2.55,55.36-2.79,75.94-.69,26.06,2.67,38.09,8.47,39.02,18.81h0c.7,7.81-3.8,18.08-45.15,28.14-18.55,4.52-40.93,8.04-64.73,10.18-15.6,1.4-30.7,2.11-44.63,2.11ZM110.41,1080.55c4.36,1.8,14.04,4.28,32.39,5.38,18.28,1.09,40.11.58,63.13-1.48,23.02-2.07,44.59-5.45,62.38-9.79,17.86-4.35,26.96-8.52,30.92-11.06-9.97-4.15-42.8-8.54-95.52-3.8-52.72,4.73-84.25,14.9-93.31,20.76Z"/>
          <path class="cls-2" d="M352.99,1084.5c1.4,15.64-62.77,34.18-143.32,41.42-80.56,7.23-147.01.42-148.41-15.22l.19-2.11,4-42.87c.77,8.6,22.37,14.37,55.32,16.34,23.6,1.42,53.03.87,84.78-1.98,31.75-2.85,60.81-7.56,83.78-13.16,32.06-7.81,52.3-17.34,51.53-25.94l11.57,41.47.56,2.04Z"/>
          <path class="cls-2" d="M340.87,1040.99l5.83,20.92,5.72,20.55.56,2.04c1.41,15.63-62.75,34.19-143.31,41.42-80.56,7.23-147.01.43-148.42-15.23l.19-2.1,2.19-23.42,1.83-19.46c.76,8.6,22.37,14.38,55.32,16.35,23.6,1.4,53.02.87,84.77-1.98,31.75-2.85,60.81-7.57,83.78-13.15,32.07-7.81,52.3-17.34,51.54-25.94Z"/>
          <g class="cls-9">
            <path class="cls-6" d="M346.7,1061.91c-16.62,13.35-71.86,26.98-138.24,32.95-70.35,6.32-129.93,1.93-144.84-9.69l1.83-19.46c.76,8.6,22.37,14.38,55.32,16.35,23.6,1.4,53.02.87,84.77-1.98,31.75-2.85,60.81-7.57,83.78-13.15,32.07-7.81,52.3-17.34,51.54-25.94"/>
          </g>
          <path class="cls-4" d="M146.4,1136.73c-42.83,0-91.24-4.62-93.1-25.31l-.06-.72,4.26-45.72,15.9.03c-.05-.51-.22-.85-.29-.94,1.48,2.08,13.02,7.94,48.13,10.04,24.23,1.46,53.14.77,83.59-1.96,30.46-2.73,59.03-7.22,82.6-12.96,34.03-8.29,42.98-15.57,44.92-17.6,2.67-2.81,6.68-3.98,10.43-3.04,3.76.94,6.74,3.84,7.78,7.58l10.37,37.68c3.16,35.25-134.82,48.66-150.56,50.08-6.5.58-33.86,2.87-63.97,2.87ZM69.36,1109.69c6.65,7.14,57.1,15.69,139.59,8.28,82.49-7.41,130.62-24.81,135.88-33.02l-7.55-27.08c-9.41,6.01-24.84,11.65-46.07,16.81-24.33,5.93-53.71,10.55-84.95,13.35-31.23,2.8-60.95,3.5-85.97,2-24.2-1.45-39.13-4.56-48.32-8.32l-2.61,27.98Z"/>
          <g class="cls-11">
            <path class="cls-4" d="M387.21,1284.95c.22,1.88.23,3.84-.08,5.86l.08-5.86Z"/>
          </g>
          <g class="cls-9">
            <path class="cls-6" d="M80.04,1278.9l18.81,105.26c1.13,6.34,7.3,10.49,13.6,9.15h0c5.16-1.1,8.89-5.59,9.02-10.87l2.57-103.05c.15-5.95-4.31-11.01-10.23-11.63l-21.38-2.21c-7.54-.78-13.73,5.88-12.4,13.35Z"/>
          </g>
          <g class="cls-11">
            <path class="cls-4" d="M395.6,1182.59c-.16,12.93-.32,26.33-.48,40.14-1.32,104.46-2.95,231.03-4.15,328.71-17.04,34.71-204.26,54.23-258.8,33-6.03-2.35-10.41-5.19-12.81-8.58l-11.13-57.3-43.21-222.53-4.75-24.46c45.97,5.51,179.64,34.91,198.71,108.17,12.37,47.68-29.09,106.58-71.46,151.94,57.46,7.46,122.26,5.47,146.16-53.23,18.63-45.81,23.02-98.48,22.94-150.23-.08-47.36-41.58-84.23-88.62-78.57-9.82,1.16-19.87,2.23-30.13,3.15-81.44,7.34-152.14,3.91-182.67-7.22l-6.18-31.88,303.77-27.29,42.81-3.83Z"/>
          </g>
        </g>
        <path class="cls-6" d="M2426.77,1546.54s229.65-.73,276.12,0c46.47.73-36.62-154.88-120.41-182.34-124.64-40.85-155.71,182.34-155.71,182.34Z"/>
        <g class="cls-11">
          <path class="cls-4" d="M2702.91,1546.56c-46.48-.76-276.16,0-276.16,0,0,0,21.27-152.7,99.15-182.35-5.14,8.44-9.74,17.37-13.85,26.44-22.8,50.35,11.25,108.12,66.3,113.13,42.99,3.92,93.43,8.84,136.16,13.88,4.15,17.48,1.16,29.09-11.61,28.89Z"/>
        </g>
        <path class="cls-4" d="M2703.21,1562.51c-.19,0-.38,0-.58,0-45.79-.72-273.52,0-275.82,0-4.59,0-9.03-1.98-12.07-5.46s-4.42-8.12-3.79-12.7c.8-5.77,20.5-141.82,92.33-186.64,25.28-15.78,53.6-18.69,84.16-8.67,76.72,25.15,151.82,143.47,144.18,189.03-2.54,15.12-13.4,24.45-28.42,24.45ZM2610.66,1530.26c38.73,0,72.92.07,89.66.29-.05-5.29-2.22-17.28-11.96-37.18-21.96-44.85-68.27-100.05-110.85-114.01-21.44-7.02-40.18-5.26-57.29,5.4-45.51,28.37-66.83,109.28-74.33,145.76,33.44-.09,104.58-.27,164.78-.27Z"/>
        <path class="cls-4" d="M2647.98,1558.72c-4.39,0-8.65-2.31-10.93-6.42-65.58-117.76-163.07-129.83-164.05-129.94-6.86-.76-11.81-6.94-11.05-13.8.76-6.86,6.9-11.79,13.8-11.05,4.51.5,111.35,13.73,183.14,142.63,3.36,6.03,1.19,13.64-4.84,17-1.92,1.07-4.01,1.58-6.07,1.58Z"/>
        <g class="cls-11">
          <path class="cls-4" d="M125.16,1575.09c-.32.28-.64.56-.96.84-7.3-2.59-11.49-5.75-11.85-9.42,2.39,3.39,6.78,6.22,12.81,8.58Z"/>
        </g>
        <path class="cls-6" d="M47.09,1231.66c1.83-3.57,167.87,18.01,188,95.46,20.83,80.12-131.35,196.22-131.35,196.22,0,0-151.57-106.29-56.65-291.68Z"/>
        <g class="cls-11">
          <path class="cls-4" d="M103.73,1523.34s-114.88-80.56-81.96-223.77c.12.95.25,1.89.38,2.83,12.8,90.22,124.4,125.2,187.11,59.08,9.59-10.12,18.65-20.67,26.5-31.39,16.4,80-132.03,193.24-132.03,193.24Z"/>
        </g>
        <path class="cls-4" d="M104.14,1543.11l-9.56-6.71c-1.63-1.14-161.78-116.53-61.69-312.02,5.5-10.74,16.69-9.51,27.51-8.32,1.67.18,167.35,19.37,190.14,107.04,22.83,87.85-120.68,200.38-137.12,212.92l-9.28,7.08ZM56.98,1247.68c-32.69,68.73-33.71,133.26-3.01,191.93,16.43,31.4,37.89,52.85,49.86,63.31,44.41-36.16,129.59-118.8,115.82-171.79-14.41-55.46-128.99-79.94-162.67-83.45ZM47.09,1231.66h.05-.05Z"/>
        <path class="cls-4" d="M32.71,1448.08c-7.6,0-14.34-5.46-15.7-13.21-1.52-8.68,4.28-16.95,12.96-18.47,1.04-.18,105.34-18.99,197.89-76.37,7.49-4.65,17.33-2.34,21.98,5.15,4.65,7.49,2.34,17.33-5.15,21.98-97.96,60.73-204.71,79.9-209.21,80.68-.93.16-1.86.24-2.77.24Z"/>
        <path class="cls-4" d="M236.28,1348.97c-1.48,0-2.98-.21-4.47-.64-85.11-24.75-210.43-25.07-211.69-25.07-8.81,0-15.96-7.15-15.96-15.96s7.15-15.96,15.96-15.96c5.31,0,131.07.3,220.6,26.34,8.46,2.46,13.33,11.32,10.87,19.78-2.03,6.98-8.4,11.51-15.32,11.51Z"/>
      </g>
      <g>
        <path class="cls-6" d="M1948.23,439.97c-3.89,0-7.55-2.03-9.59-5.43-2.33-3.87-2.1-8.76.58-12.4l36.4-49.45-34.86,5.11c-6.14.9-11.8-3.33-12.7-9.45-.9-6.12,3.33-11.8,9.45-12.7l61.39-9c4.48-.68,8.89,1.44,11.22,5.31,2.33,3.87,2.1,8.76-.58,12.4l-36.4,49.45,34.86-5.11c6.15-.9,11.8,3.33,12.7,9.45.9,6.12-3.33,11.8-9.45,12.7l-61.39,9c-.54.08-1.09.12-1.63.12Z"/>
        <path class="cls-6" d="M1763,350.83c-3.89,0-7.55-2.03-9.59-5.43-2.33-3.87-2.1-8.76.58-12.4l71.44-97.04-75.98,11.13c-6.15.89-11.8-3.33-12.7-9.45-.9-6.12,3.33-11.8,9.45-12.7l102.52-15.02c4.48-.67,8.89,1.44,11.22,5.31,2.33,3.87,2.1,8.76-.58,12.39l-71.44,97.04,75.98-11.14c6.13-.9,11.8,3.33,12.7,9.45.9,6.12-3.33,11.8-9.45,12.7l-102.52,15.02c-.54.08-1.09.12-1.63.12Z"/>
        <path class="cls-6" d="M1918.87,190.46c-4.15,0-8.06-2.17-10.24-5.8-2.48-4.13-2.24-9.35.62-13.23l105.64-143.51-115.6,16.94c-6.54.96-12.6-3.56-13.55-10.09-.96-6.53,3.56-12.6,10.09-13.55L2039.75.13c4.79-.71,9.49,1.54,11.98,5.67,2.48,4.13,2.24,9.35-.62,13.23l-105.64,143.51,115.6-16.94c6.56-.95,12.6,3.56,13.55,10.09.96,6.53-3.56,12.6-10.09,13.55l-143.93,21.09c-.58.09-1.16.13-1.74.13Z"/>
      </g>
    </g>
  </g>
</svg>