<?xml version="1.0" encoding="UTF-8"?>
<svg id="Laag_2" data-name="Laag 2" xmlns="http://www.w3.org/2000/svg" viewBox="0 0 2579 2579">
  <defs>
    <style>
      .cls-1 {
        fill: #c2cfef;
        stroke: #512717;
        stroke-miterlimit: 10;
        stroke-width: 20px;
      }

      .cls-2 {
        fill: #ffefe6;
      }

      .cls-3 {
        fill: #fff;
      }

      .cls-4 {
        fill: #fffafb;
      }

      .cls-5 {
        opacity: .5;
      }

      .cls-6 {
        opacity: .3;
      }

      .cls-7 {
        fill: #d89e77;
      }

      .cls-8 {
        fill: #512717;
      }

      .cls-9 {
        fill: #aa6b3f;
      }
    </style>
  </defs>
  <g id="Layer_1" data-name="Layer 1">
    <g>
      <rect class="cls-1" x="10" y="10" width="2559" height="2559" rx="113" ry="113"/>
      <g>
        <g>
          <path class="cls-7" d="M1957.54,1662.71c-73.22,391.36-495.29,504.03-973.24,414.62-477.95-89.42-830.8-347.07-757.58-738.42,70.18-375.09,393.83-757.92,949.26-690.14,72.69-21.45,173.61-63.26,240.46-140.63,20.92-24.18,60.34-12.75,64.73,19.01,5.81,42.2,8.16,96.64-31.07,159,80.12-21.92,160.69-48.84,188.74-65.91,30.05-18.27,67.38,8.25,59.74,42.55-7.43,33.17-32.73,101.71-57.79,158.46,286.88,207.57,370.6,553.64,316.75,841.47"/>
          <g class="cls-6">
            <path class="cls-8" d="M984.29,2077.35c-477.95-89.44-830.8-347.09-757.56-738.44,6.83-36.42,15.98-72.86,27.58-108.96-73.06,391.26,279.76,648.85,757.64,738.21,439.87,82.28,832.5-6.6,949.27-326.44-1.14,7.01-2.34,14.04-3.66,20.98-73.23,391.35-495.31,504.03-973.27,414.64"/>
          </g>
          <g class="cls-6">
            <path class="cls-3" d="M1892.07,1837.35c15.33-35.36,27.01-73.76,34.78-115.28,50.64-270.7-38.05-612.64-287.44-825.05-28.35-24.14-38.01-63.75-23.38-97.99,16.51-38.63,31.02-75.15,35.94-97.09,7.64-34.3-13.77-40.61-43.82-22.34-21.94,13.34-75.96,32.72-136.78,51.01-18.64,5.61-36.17-12.29-29.63-30.63,15.49-43.47,13.08-81.89,8.73-113.47-4.38-31.75-20.05-42.42-51.61-5.67-44.42,51.71-110.02,81.51-170.35,102-48.24,16.38-99.34,22.21-150.19,19.21-378.47-22.37-641.11,170.24-780.34,416.84,136.05-288.94,432.45-524.5,878-470.12,72.69-21.45,173.61-63.26,240.46-140.63,20.92-24.18,60.34-12.75,64.73,19.01,5.81,42.2,8.16,96.64-31.07,159,80.12-21.92,160.68-48.84,188.74-65.92,30.05-18.26,67.38,8.25,59.74,42.55-7.43,33.17-32.73,101.71-57.79,158.46,286.88,207.57,370.6,553.64,316.75,841.47-12.35,66.02-34.63,124.12-65.47,174.64"/>
          </g>
          <path class="cls-2" d="M1796.53,1577.79c-21.34,114.04-78.86,230.33-200.17,305.81-123.98,77.23-314.59,111.88-601.4,58.22h-.04c-283.81-53.1-448.53-152.78-536.92-268-88.36-115.17-100.44-245.92-78.87-361.19,4.38-23.43,10.62-46.08,18.54-67.73,69.8-191.7,269.92-310.37,477.01-271.62,113.26,21.19,207.64,85.55,269.1,172.89,88.91-59.21,200.14-85.1,313.4-63.91,204.54,38.26,347.17,217.13,346.63,418.01v.04c-.03,25.56-2.41,51.48-7.28,77.5"/>
          <path class="cls-8" d="M1188.72,1490.66c-6.65,35.53-61.96,69.39-120.33,58.46-58.38-10.92-97.71-62.48-91.06-98.01,6.65-35.53,56.76-41.59,115.14-30.67,58.38,10.92,102.91,34.68,96.26,70.21"/>
          <g class="cls-5">
            <path class="cls-4" d="M1132.7,1459.88c-1.55,8.31-22.69,14.69-46.46,10.24-23.76-4.44-41.17-18.04-39.61-26.34,1.56-8.31,21.48-8.19,45.25-3.75s42.38,11.54,40.83,19.85"/>
          </g>
          <path class="cls-8" d="M777.18,2034.47c-90.9-21.08-178.67-56.89-259.54-105.07-40.43-24.09-79.28-51.16-115.47-81.72-36.14-30.56-69.81-64.53-98.57-102.66-28.78-38.02-53.55-79.6-70.94-124.44-17.59-44.68-29.06-91.99-32.63-139.9-3.86-47.89-.95-96.1,7.47-143.06,8.46-46.52,20.49-92.3,36.09-136.87,31.21-89.11,75.86-173.57,132.73-249.11,56.84-75.49,126.07-142.04,205.14-194.36,79.17-52.12,167.76-89.65,259.81-111.16,46.09-10.55,92.93-17.31,139.95-20.83,47.08-3.01,94.21-2.2,141.11.86,9.56.62,16.8,8.88,16.18,18.43-.62,9.49-8.77,16.7-18.24,16.18l-.39-.02c-45.4-2.47-90.86-2.68-136.08.61-45.16,3.69-90.01,10.44-134.01,20.8-87.93,21.03-171.78,57.58-247.07,107.22-75.21,49.85-141.17,113.33-195.47,185.54-54.32,72.25-97.07,153.24-126.92,238.67-14.91,42.71-26.85,86.53-35.1,130.96-8.11,44.01-10.99,88.82-7.65,133.14,6.29,88.79,40.72,174.31,94.92,245.42,26.76,35.87,58.42,68.17,92.7,97.45,34.32,29.28,71.45,55.46,110.33,78.88,78,46.72,161.87,83.04,246.91,118.53l.03.02c4.44,1.85,6.53,6.95,4.68,11.38-1.66,3.98-5.94,6.07-10,5.13"/>
          <path class="cls-8" d="M1648.41,805.32c32.36,23.06,63.15,48.38,91.88,75.93,28.68,27.59,55.32,57.33,79.58,88.92,48.51,63.17,87.52,133.64,115.54,208.13,55.99,149.18,70.24,312.7,44.45,469.48-6.37,39.24-16.36,78.71-30.86,116.31-14.45,37.68-33.35,73.79-56.5,107-23.1,33.25-50.41,63.56-81.01,89.88-30.52,26.42-64.02,49.12-99.25,68.23-70.6,38.27-147.58,62.22-225.45,76.42-77.87,14.39-157.56,18.86-235.71,8.98-4.78-.6-8.16-4.96-7.56-9.75.52-4.14,3.87-7.23,7.86-7.59h.05c77.36-7.09,153.77-12.2,228.97-26.07,74.94-14.12,148.24-37.55,214.38-73.94,66-36.23,124.64-85.85,166.67-147.7,21.15-30.75,38.39-64.14,51.58-99.16,3.55-8.66,6.3-17.62,9.16-26.55,3.09-8.85,5.28-17.99,7.71-27.05,2.61-9.01,4.32-18.28,6.29-27.47,2.12-9.11,3.61-18.55,5.22-27.92,24.86-150.08,11.27-307.13-42.09-449.56-26.63-71.17-63.03-138.71-108.92-199.24-45.82-60.57-100.81-114.1-162.22-159.12l-.1-.07c-7.72-5.66-9.4-16.51-3.73-24.24,5.61-7.66,16.34-9.36,24.05-3.87"/>
          <path class="cls-9" d="M941.08,1423.84c-40.87,120.25-145.8,130.7-285.51,158.62-87.67,17.5-152.88,55.53-197.57,91.36-88.36-115.17-100.44-245.92-78.87-361.19,4.38-23.43,10.62-46.08,18.54-67.73,91.45-65.24,226.69-119.02,396.89-65.48,124.57,39.21,175.86,158.12,146.53,244.42"/>
          <path class="cls-9" d="M1796.53,1577.79c-21.34,114.04-78.86,230.33-200.17,305.81-28.94-48.8-75.54-106.18-149.16-153.04-120.17-76.54-214.23-124.21-208.87-251.11,3.85-91.06,94.67-183.39,224.98-174.92,172.5,11.22,278.01,104.54,340.49,195.73v.04c-.03,25.56-2.41,51.48-7.28,77.5"/>
          <path class="cls-8" d="M1421.93,701.53c7.83-9.61,14.83-18.88,20.63-28.81,5.59-10.07,10.17-20.46,13.92-31.29,3.59-10.93,6.27-22.29,7.93-33.97,1.66-11.69,2.07-23.71,1.94-35.76-.12-12.06-1.26-24.23-2.84-36.35l-.62-4.55-.15-1.14-.18-.61-.3-1.23c-.1-.41-.14-.85-.26-1.24l-.49-1.09c-.29-.74-.5-1.53-.99-2.13-1.45-2.71-3.59-4.96-6.31-6.6-5.5-3.35-12.79-3.39-17.95-.38l-1.03.5-.91.75c-.6.5-1.32.83-1.83,1.53l-1.99,2.02-3.39,3.79-6.8,7.59c-2.3,2.5-4.74,4.86-7.1,7.3-38.19,38.77-85.16,67.93-134.9,87.86-24.92,9.99-50.65,17.63-76.74,23.28-13.06,2.77-26.23,5.01-39.49,6.74-6.64.85-13.29,1.53-20,2.04-3.35.26-6.72.49-10.12.65-3.48.17-6.62.3-10.6.33-9.58.07-17.4-7.63-17.47-17.21-.07-9.32,7.22-16.97,16.44-17.45l.56-.02c2.45-.13,5.73-.36,8.67-.63,3.02-.26,6.07-.59,9.11-.95,6.1-.69,12.2-1.63,18.31-2.55,12.2-1.94,24.36-4.37,36.39-7.27,24.13-5.59,47.67-13.36,70.48-22.59,22.74-9.4,44.64-20.66,65.15-33.91,10.36-6.49,20.1-13.82,29.73-21.28,9.38-7.74,18.59-15.71,27.13-24.34,2.14-2.15,4.36-4.24,6.43-6.45l6.16-6.71,3.08-3.35,2.25-2.33,2.54-2.52c1.63-1.73,3.66-3.12,5.61-4.57l2.97-2.11,3.23-1.76c17.42-9.46,39.3-8.48,55.71,1.81,8.26,5.09,15.25,12.53,19.74,21.21,1.27,2.12,2.09,4.39,2.92,6.67l1.21,3.42c.33,1.14.54,2.31.8,3.46l.7,3.48.33,1.75.14,1.26.56,5.02c1.44,13.41,2.4,26.95,2.24,40.62-.19,27.23-3.7,55.29-14.15,81.89-5.51,13.17-13.04,25.65-22.42,36.53-9.6,10.74-21.2,19.47-33.74,25.58-4.37,2.13-9.64.32-11.77-4.06-1.55-3.18-1.01-6.84,1.08-9.41l.41-.5Z"/>
          <path class="cls-8" d="M1624.42,809c4.93-7.1,9.3-14.84,13.54-22.78,4.1-8.06,7.9-16.39,11.37-24.96,6.83-17.18,12.85-34.98,18.06-53.13,2.58-9.08,5.12-18.2,7.43-27.41l3.37-13.85,1.6-6.95c.36-1.37.34-1.86.43-2.54.09-.66.2-1.31.33-1.97.47-5.16-1.07-9.91-4.08-14.13-3.23-4.01-8.06-7.19-13.15-8.15-5.12-.86-10.15-.3-15.3,2.62-8.58,4.99-17.21,9.92-25.99,14.61-17.5,9.47-35.58,18.02-54.19,25.53-18.66,7.38-37.91,13.69-57.91,17.69-19.94,3.96-40.74,5.86-61.34,3.2-4.76-.62-8.13-4.98-7.52-9.75.53-4.11,3.85-7.18,7.81-7.55l.32-.03c36.62-3.47,71.76-17.13,105.64-33.3,16.99-8.08,33.6-17.13,50.05-26.54,8.22-4.72,16.33-9.67,24.4-14.69,11.43-7.28,26.65-10.6,40.68-8.08,14.06,2.47,26.75,10.21,35.76,21.2,8.86,11.11,13.71,26.05,12.53,40.32l-.72,5.23c-.26,1.73-.56,3.65-.83,4.63l-1.65,7.25-3.49,14.48c-2.42,9.64-4.96,19.27-7.83,28.84-5.74,19.13-12.23,38.19-20.47,56.83-4.1,9.33-8.63,18.57-13.63,27.67-5.09,9.1-10.88,17.95-17.49,26.5-5.85,7.58-16.74,8.98-24.32,3.13-7.34-5.67-8.88-16.05-3.68-23.58l.25-.35Z"/>
          <path class="cls-8" d="M1600.99,1523.5c-2.81,2.35-4.8,3.9-7.18,5.7-2.32,1.7-4.66,3.28-7.01,4.84-4.7,3.15-9.62,5.81-14.56,8.47-9.95,5.17-20.39,9.4-31.17,12.79-21.58,6.67-44.64,9.71-67.83,8.7-11.59-.58-23.16-2.28-34.51-4.91-11.31-2.84-22.36-6.65-32.87-11.53-20.93-9.9-39.7-23.79-53.96-41.05-6.67-8.07-5.53-20.02,2.54-26.69,5.52-4.57,12.86-5.47,19.08-3.01l.85.35c17.89,7.14,34.52,13.51,51.31,18.04,8.43,2.13,16.79,4.03,25.23,5.41,8.45,1.33,16.93,2.27,25.51,2.85,17.16.91,34.66.22,52.47-2.03,8.91-1.06,17.88-2.57,26.91-4.26,4.56-.75,9.02-1.85,13.56-2.77,2.28-.46,4.51-1,6.74-1.52,2.17-.4,4.67-1.16,6.26-1.29l5.34-.45c10.1-.84,18.98,6.66,19.81,16.76.52,6.14-2.14,11.9-6.5,15.6"/>
          <path class="cls-8" d="M627.97,1313.04c1.44.7,3.49,2.31,5.37,3.46,1.89,1.28,3.78,2.6,5.74,3.85,3.9,2.5,7.66,5.13,11.64,7.48,7.81,4.85,15.63,9.49,23.56,13.7,15.78,8.54,31.85,15.5,48.18,20.87,8.21,2.55,16.45,4.75,24.82,6.56,8.36,1.77,16.84,3.02,25.47,4.08,17.29,1.84,35.1,1.92,54.36,1.73h.9c10.47-.11,19.04,8.29,19.14,18.76.07,7.17-3.86,13.45-9.7,16.73-19.54,10.94-42.06,17.1-65.16,18.76-11.56.76-23.24.31-34.81-1.13-11.53-1.66-22.94-4.25-33.95-7.9-21.99-7.44-42.39-18.6-60.1-32.63-8.82-7.07-17.03-14.78-24.44-23.2-3.65-4.27-7.27-8.53-10.51-13.16-1.63-2.3-3.24-4.62-4.79-7.04-1.56-2.54-2.86-4.7-4.63-7.9-4.89-8.87-1.67-20.04,7.21-24.93,5.4-2.98,11.64-2.95,16.8-.48l4.91,2.4Z"/>
          <path class="cls-8" d="M1102.98,1628.51c-5.12,27.78-29.14,46.64-53.63,42.13-24.5-4.52-40.22-30.7-35.1-58.48,5.12-27.78,29.13-46.64,53.63-42.12,24.5,4.51,40.22,30.69,35.1,58.47"/>
        </g>
        <g>
          <path class="cls-8" d="M2061.08,842.94l-148.74,32.61-6.55-29.86,58.5-139.13-82.72,18.14-9.07-41.37,145.73-31.95,6.48,29.58-59.25,139.59,86.56-18.98,9.07,41.36Z"/>
          <path class="cls-8" d="M2189.27,617.17l-105.37,11.34-2.28-21.15,50.97-91.87-58.61,6.31-3.15-29.3,103.24-11.11,2.25,20.96-51.53,92.12,61.33-6.6,3.15,29.3Z"/>
          <path class="cls-8" d="M2398.96,673.79l-121.27,13.05-2.62-24.34,58.66-105.72-67.45,7.26-3.63-33.72,118.82-12.79,2.59,24.12-59.3,106.02,70.58-7.6,3.63,33.72Z"/>
          <path class="cls-8" d="M2216.02,845.27l-63.06,6.79-1.36-12.66,30.5-54.97-35.07,3.78-1.88-17.53,61.78-6.65,1.35,12.54-30.84,55.12,36.7-3.95,1.89,17.54Z"/>
        </g>
      </g>
    </g>
  </g>
</svg>