<?xml version="1.0" encoding="UTF-8"?>
<svg id="Laag_2" data-name="Laag 2" xmlns="http://www.w3.org/2000/svg" viewBox="0 0 2650.41 2730.91">
  <defs>
    <style>
      .cls-1 {
        fill: #ffefe6;
      }

      .cls-2 {
        fill: #fff;
      }

      .cls-3 {
        fill: #fffafb;
      }

      .cls-4 {
        opacity: .5;
      }

      .cls-5 {
        opacity: .3;
      }

      .cls-6 {
        fill: #d89e77;
      }

      .cls-7 {
        fill: #512717;
      }

      .cls-8 {
        fill: #aa6b3f;
      }
    </style>
  </defs>
  <g id="Layer_1" data-name="Layer 1">
    <g>
      <g>
        <path class="cls-2" d="M1997.95,2269.1c154.81,93.61,192.93,184.93,131.39,210.43-91.38,37.87-337.57,42.42-423.08,33.74,0,0,118.32-349,291.69-244.17"/>
        <path class="cls-7" d="M1804.23,2534.27c-41.19,0-76.58-1.4-99.72-3.75-5.25-.54-9.98-3.43-12.84-7.88-2.86-4.44-3.53-9.95-1.84-14.95,3.08-9.09,76.87-223.11,198.33-267.46,39.56-14.43,79.5-9.73,118.75,14.01,109,65.9,171.65,137.31,167.59,191.03-1.73,22.83-15.42,40.68-38.54,50.26-69.2,28.68-221.32,38.72-331.76,38.72ZM1730.61,2497.75c96.45,5.56,310.78-.54,392.09-34.24,14.49-6,16.77-14.77,17.23-20.84,2.43-32.11-43.31-93.64-150.96-158.73h0c-30.22-18.27-59.28-21.91-88.88-11.12-85.54,31.2-148.19,171.18-169.48,224.93Z"/>
        <path class="cls-2" d="M1997.95,2269.1c154.81,93.61,192.93,184.93,131.39,210.43-91.38,37.87-337.57,42.42-423.08,33.74,0,0,118.32-349,291.69-244.17"/>
        <path class="cls-7" d="M1804.23,2534.27c-41.19,0-76.58-1.4-99.72-3.75-5.25-.54-9.98-3.43-12.84-7.88-2.86-4.44-3.53-9.95-1.84-14.95,3.08-9.09,76.87-223.11,198.33-267.46,39.56-14.43,79.5-9.73,118.75,14.01,109,65.9,171.65,137.31,167.59,191.03-1.73,22.83-15.42,40.68-38.54,50.26-69.2,28.68-221.32,38.72-331.76,38.72ZM1730.61,2497.75c96.45,5.56,310.78-.54,392.09-34.24,14.49-6,16.77-14.77,17.23-20.84,2.43-32.11-43.31-93.64-150.96-158.73h0c-30.22-18.27-59.28-21.91-88.88-11.12-85.54,31.2-148.19,171.18-169.48,224.93Z"/>
        <path class="cls-2" d="M1997.95,2269.1c154.81,93.61,192.93,184.93,131.39,210.43-91.38,37.87-337.57,42.42-423.08,33.74,0,0,118.32-349,291.69-244.17"/>
        <g class="cls-5">
          <path class="cls-7" d="M2129.33,2479.52c-91.38,37.85-337.56,42.42-423.06,33.75,0,0,102.15-301.33,255.68-259.88,10.58,27.74,24.39,52.45,24.39,52.45,80.52,8.16,58.27,155.44,169.33,120.94,5.69,24.57-3.4,43.22-26.34,52.73"/>
        </g>
        <path class="cls-7" d="M1804.23,2534.27c-41.19,0-76.58-1.4-99.72-3.75-5.25-.54-9.98-3.43-12.84-7.88-2.86-4.44-3.53-9.95-1.84-14.95,3.08-9.09,76.87-223.11,198.33-267.46,39.56-14.43,79.5-9.73,118.75,14.01,109,65.9,171.65,137.31,167.59,191.03-1.73,22.83-15.42,40.68-38.54,50.26-69.2,28.68-221.32,38.72-331.76,38.72ZM1730.61,2497.75c96.45,5.56,310.78-.54,392.09-34.24,14.49-6,16.77-14.77,17.23-20.84,2.43-32.11-43.31-93.64-150.96-158.73h0c-30.22-18.27-59.28-21.91-88.88-11.12-85.54,31.2-148.19,171.18-169.48,224.93Z"/>
        <path class="cls-6" d="M1311.3,1462.05c-83.92,508.31-50.47,912.89,196.37,1018.82,129.45,55.56,476.65,81.06,530.11-20.97,34.05-65,1.48-230.1-191.68-283.85-120.13-33.43-160.86-84.06-179.37-116.29-36.75-63.99-108.14-304.31-168.48-577.47l-186.95-20.25Z"/>
        <g class="cls-5">
          <path class="cls-2" d="M2037.76,2459.89c-.33.61-.65,1.21-.98,1.77,10.64-76.65-37.25-203.51-202.06-249.39-120.1-33.43-160.85-84.06-179.36-116.28-36.74-64.01-108.16-304.31-168.5-577.48l-181.46-19.67c1.91-12.21,3.87-24.48,5.92-36.78l186.96,20.23c60.33,273.16,131.71,513.46,168.45,577.48,18.5,32.22,59.26,82.85,179.36,116.28,193.16,53.76,225.75,218.85,191.67,283.85"/>
        </g>
        <g class="cls-5">
          <path class="cls-7" d="M2037.76,2459.89c-53.43,102.06-400.64,76.55-530.11,20.98-246.82-105.93-280.26-510.53-196.33-1018.82l11.42,1.26c-56.09,443.25-8.02,786.11,216.28,882.39,115.53,49.56,404.51,75.2,503.3,7.6,11.75,42.28,8.44,81.73-4.57,106.58"/>
        </g>
        <path class="cls-7" d="M1805.71,2546.83c-1.55,0-3.07,0-4.58,0-111.25-.58-231.93-20.68-300.3-50.01-122.97-52.78-201.2-177.84-232.5-371.69-27.58-170.84-18.88-394.88,25.86-665.89,1.56-9.44,10.47-15.87,19.94-14.28,9.45,1.56,15.84,10.48,14.28,19.94-64.72,392.01-84.97,883.73,186.1,1000.06,135.2,58.02,463.43,71.8,507.91-13.08,12.52-23.92,15.53-70.31-5.99-120.03-16.61-38.37-61.42-107.46-174.98-139.06-94.78-26.38-156.85-67.06-189.76-124.36-39.31-68.45-110.96-313.37-170.38-582.36-2.07-9.35,3.84-18.61,13.19-20.67,9.38-2.06,18.61,3.85,20.67,13.19,57.81,261.7,129.42,507.85,166.59,572.57,10.35,18.02,41.83,72.84,168.97,108.22,127.44,35.46,178.45,114.65,197.51,158.7,22.92,52.96,24.83,111.81,4.88,149.91-35.76,68.24-168.33,78.89-247.44,78.89Z"/>
        <path class="cls-7" d="M1764.94,2288.73c-8.09,0-15.32-5.68-16.98-13.91-23-113.98-119.8-175-199.87-175-.52,0-1.03,0-1.55,0-84.92.83-146.91,63.61-165.83,167.92-1.71,9.42-10.7,15.68-20.16,13.97-9.42-1.71-15.68-10.74-13.97-20.16,22.12-121.97,96.74-195.39,199.61-196.41.68,0,1.38,0,2.06,0,110.05,0,210.3,86.82,233.71,202.81,1.89,9.39-4.18,18.54-13.57,20.43-1.16.23-2.31.34-3.45.34Z"/>
        <path class="cls-2" d="M1848.99,2322.92c-19.36-120.59-55.13-291.88-108.81-311.46-71.83-26.21-181.58,134.99-172.21,275.97,5.31,79.99,297.55,138.48,281.01,35.49"/>
        <path class="cls-2" d="M1848.99,2322.92c9.5,59.15-82.77,65.06-164.12,44.22-60.33-15.47-114.62-45.63-116.88-79.68-.75-11.08-.74-22.31-.07-33.53,7.7-131.67,106.08-266.61,172.27-242.44,53.69,19.56,89.48,190.84,108.81,311.43"/>
        <g class="cls-5">
          <path class="cls-7" d="M1833.21,2270.38c-1.94,29.56-74.17,68.87-148.35,96.75-60.33-15.47-114.62-45.63-116.88-79.68-.75-11.08-.74-22.31-.07-33.53,28.47-64.01,71.87-121.11,144.41-128.86,74.88-8.01,125.62,72.01,120.88,145.32"/>
        </g>
        <path class="cls-7" d="M1688.14,2372.36c-8.1,0-15.34-5.7-16.99-13.95-38.74-194.18,17.44-346.91,19.85-353.32,3.37-8.96,13.36-13.51,22.34-10.12,8.96,3.37,13.49,13.36,10.13,22.32h0c-.55,1.48-55.02,150.29-18.31,334.33,1.88,9.39-4.22,18.53-13.61,20.4-1.15.23-2.29.34-3.41.34Z"/>
        <path class="cls-7" d="M1762.63,2411.35c-.83,0-1.67-.06-2.52-.19-9.48-1.38-16.04-10.19-14.65-19.66,27.23-186.43-12.98-369.74-13.39-371.57-2.09-9.35,3.79-18.62,13.13-20.71,9.31-2.11,18.61,3.77,20.71,13.12,1.73,7.71,42.06,191.19,13.86,384.16-1.26,8.63-8.67,14.84-17.14,14.84Z"/>
        <path class="cls-7" d="M1765.2,2395.27c-45.99,0-99.45-12-141.1-30.92-46.14-20.96-71.53-47.15-73.43-75.77-7.37-110.9,53.96-228.98,115-274.78,28.15-21.11,55.97-27.56,80.45-18.63,17.82,6.5,72.04,26.29,119.99,325,3.59,22.38-3.95,41.97-21.23,55.16-18.21,13.89-47.07,19.93-79.69,19.93ZM1723.88,2025.98c-13.43,0-27.26,7.97-37.39,15.57-54.03,40.54-107.6,148.55-101.21,244.74.94,14.2,21.31,32.02,53.16,46.48,66.06,30,156.17,37.3,185.41,14.99,7.22-5.51,9.62-12.11,8.02-22.08h0c-41.49-258.52-85.21-293.39-97.62-297.92-3.38-1.24-6.86-1.78-10.37-1.78Z"/>
        <path class="cls-6" d="M1850.85,2362.65c-4.47,58.11-25.62,111.01-50.88,147.35-47.65,64.64-163.82,66.91-289.93,69.93-126.11,2.98-341.91-15.41-468.72-162.94l98.31-29.12,433.03-128.39c29.78-65.95,78.43-86.61,151.29-82.72,55.62,2.98,100.76,35.73,115.08,80.48,11.35,35.43,14.45,71.34,11.83,105.41"/>
        <path class="cls-7" d="M1054.45,2405.68c42.37,48.45,97.74,84.51,158.01,108.61,60.41,24.23,125.45,37.13,190.99,42.95,32.81,2.88,65.85,3.98,98.88,3.42,33.41-.76,67.15-1.48,100.18-3.37,33.04-1.96,65.87-5.05,96.83-12.17,30.72-7.13,60.1-18.92,78.76-39.41,2.47-2.58,4.31-4.99,6.43-7.8l6.2-9.51,5.86-10.13c1.9-3.41,3.59-6.97,5.41-10.44,6.97-14.08,12.81-28.81,17.58-43.88,4.58-15.14,7.96-30.62,10.31-46.24,2.09-15.66,2.94-31.41,2.59-47.13-.16-3.92-.5-7.83-.74-11.75l-.39-5.88-.78-5.82c-.55-3.88-.97-7.78-1.6-11.64l-2.33-11.5c-.65-3.86-1.79-7.6-2.84-11.37-1.08-3.65-2.01-7.77-3.18-11.06-2.08-6.53-5.32-12.67-8.89-18.6-14.95-23.64-41.64-39.8-70.38-45.59-3.63-.59-7.26-1.3-10.94-1.68-3.72-.29-7.24-.78-11.33-.82-7.94-.37-15.81-.39-23.55-.02-15.48.75-30.44,3.24-44,8.25-27.41,9.53-47.46,31.74-60.78,59.57-1.83,3.44-3.18,6.88-4.6,10.3-1.44,3.43-2.55,7.18-3.86,10.75-1.06,3.76-2.24,7.47-3.23,11.28-.91,3.85-1.97,7.64-2.76,11.56-3.39,15.57-5.6,31.61-7.1,47.71-1.56,16.11-2.59,32.29-3.39,48.5-.68,16.23-.89,32.41-.83,48.89v.2c.02,4.87-3.92,8.83-8.78,8.85-3.69.01-6.85-2.25-8.18-5.46-6.8-16.51-10.33-33.96-12.31-51.37-2.06-17.45-2.17-35-.95-52.45,1.3-17.45,3.71-34.84,7.32-52.21.85-4.34,2.02-8.69,3.01-13.03,1.1-4.34,2.43-8.68,3.65-13.03,1.52-4.35,2.81-8.69,4.57-13.05,1.76-4.37,3.51-8.77,5.6-12.79,7.84-16.46,18.02-32.56,31.55-46.39,6.63-7.01,14.38-13.05,22.43-18.53,4.17-2.5,8.34-5.07,12.68-7.24,4.4-1.98,8.72-4.31,13.28-5.79,18.02-6.8,36.67-9.85,54.78-10.86,9.07-.49,18.06-.52,26.94-.17,4.34.03,9.19.55,13.86.93,4.69.46,9.36,1.3,14.03,2.07,18.55,3.79,36.8,10.39,53.08,20.8,8.26,4.98,15.77,11.24,22.91,17.86,6.97,6.85,13.29,14.42,18.73,22.7,5.23,8.39,9.88,17.26,13.03,26.77,1.65,4.63,2.6,8.76,3.92,13.17,1.24,4.34,2.55,8.67,3.36,13.11l2.77,13.24c.77,4.44,1.3,8.91,1.95,13.37l.92,6.69.52,6.72c.31,4.48.72,8.97.92,13.45.54,17.96-.31,35.9-2.57,53.66-2.51,17.71-6.23,35.22-11.29,52.36-5.27,17.07-11.74,33.79-19.63,49.94-2.08,3.99-4.04,8.03-6.23,11.97l-6.8,11.73-7.62,11.62c-2.9,3.94-6.24,8.19-9.6,11.69-13.48,14.73-30.05,25.49-46.91,33.5-16.96,7.95-34.39,13.3-51.74,17.36-34.75,7.92-69.28,10.98-103.42,13-34.22,1.92-67.84,2.59-101.77,3.33-34.32.55-68.7-.62-102.98-3.68-68.47-6.43-136.9-20.66-201.48-47.12-16.15-6.54-31.96-14.05-47.37-22.3-15.48-8.15-30.41-17.42-44.87-27.37-28.9-20-55.19-43.89-78.11-70.65-6.23-7.28-5.39-18.22,1.89-24.46,7.22-6.19,18.07-5.39,24.32,1.75l.09.09Z"/>
        <path class="cls-2" d="M1770.98,2399.17c-2.15,41.63-29.56,73.21-61.22,70.53-31.67-2.68-55.6-38.6-53.45-80.23,2.15-41.63,29.56-73.21,61.23-70.53,31.67,2.68,55.6,38.6,53.45,80.24"/>
        <path class="cls-2" d="M1670.41,2298.9c-2.27,16.19-13.98,27.36-26.15,24.92-12.17-2.43-20.2-17.54-17.93-33.74,2.26-16.2,13.98-27.36,26.15-24.92,12.17,2.43,20.2,17.54,17.94,33.74"/>
        <path class="cls-2" d="M1740.57,2267.61c-2.27,16.19-13.98,27.35-26.15,24.92-12.17-2.43-20.2-17.54-17.94-33.74,2.27-16.2,13.98-27.36,26.15-24.92,12.17,2.43,20.2,17.54,17.94,33.74"/>
        <path class="cls-2" d="M1804.89,2309.17c-2.23,15.89-13.72,26.85-25.67,24.46-11.95-2.39-19.83-17.22-17.6-33.12,2.22-15.89,13.72-26.85,25.66-24.46,11.95,2.39,19.84,17.22,17.61,33.11"/>
        <g class="cls-5">
          <path class="cls-7" d="M1850.85,2362.65c-4.47,58.11-25.62,111.01-50.88,147.35-47.65,64.64-163.82,66.91-289.93,69.93-126.11,2.98-341.91-15.41-468.72-162.94l98.31-29.12c283.32,197.49,434.48-67.08,434.48-67.08,0,0,21.23,168.46,151.82,142.4,70.32-14.01,107.63-66.51,124.93-100.54"/>
        </g>
        <path class="cls-6" d="M440.28,2015.45s-37.95,35.33-106.67,17.02c-55.63-14.84-140.01-92.57-159.67,16.36-32.72,181.27,160.76,306.26,289.9,306.26s-23.56-339.63-23.56-339.63"/>
        <g class="cls-5">
          <path class="cls-2" d="M514.47,2303.51c-10.3-100.33-74.04-242.12-74.04-242.12,0,0-38,35.34-106.68,17.02-55.62-14.83-140.01-92.55-159.68,16.36-1.07,6.11-1.91,12.08-2.52,18.05-2.23-20.42-1.63-41.83,2.38-64.01,19.67-108.91,104.06-31.19,159.68-16.32,68.73,18.33,106.68-17.02,106.68-17.02,0,0,86.81,193.02,74.18,288.04"/>
        </g>
        <g class="cls-5">
          <path class="cls-7" d="M463.84,2355.08c-116.74,0-286.08-102.15-293.31-255.69,61.03,75.07,161.6,119.97,238.99,119.97,72.64,0,56.13-107.47,27.74-201.46,2-1.49,3.03-2.42,3.03-2.42,0,0,152.69,339.61,23.55,339.61"/>
        </g>
        <path class="cls-7" d="M463.84,2372.43c-86.5,0-189.3-50.72-249.98-123.33-50.41-60.32-70.11-130.63-56.98-203.35,6.09-33.77,18.65-55.1,38.38-65.2,31.01-15.85,68.79,2.23,102.13,18.18,14.87,7.11,28.91,13.84,40.69,16.98,57.78,15.41,89.19-11.9,90.51-13.07,4.13-3.69,9.81-5.27,15.23-4.09,5.41,1.15,10.01,4.75,12.28,9.79,11.75,26.13,113.31,257.55,62.5,336.1-8.26,12.76-24.46,27.98-54.75,27.98ZM222.22,2009.08c-4.2,0-7.97.72-11.16,2.35-11.6,5.94-17.3,25.29-20.05,40.48-14.2,78.68,19.06,138.57,49.47,174.95,54.56,65.29,146.41,110.88,223.36,110.88,15.76,0,21.97-6.48,25.62-12.13,28.64-44.27-17.04-190.5-56.92-284.54-20.15,10.27-55.35,20.95-103.39,8.15-14.91-3.97-31.08-11.72-46.73-19.2-20.78-9.95-43.76-20.95-60.2-20.95Z"/>
        <path class="cls-6" d="M1575.11,2423.75c-163.42,308.97-875.45,267.62-1069.36,114.83-270.05-212.74-138.99-618.92,75.11-1025.43,31.19-59.21,64.15-118.43,97.86-177.03l820.39,213.91c-4.66,38.65-3.03,80.15,2.61,122.34,20.1,149.8,91.01,307.95,111.99,374.11,50.54,159.5,16.46,273.21-38.6,377.28"/>
        <g class="cls-5">
          <path class="cls-7" d="M1611.9,2342.16c-10.21,28.21-22.85,55.2-36.78,81.59-163.42,308.97-875.45,267.62-1069.36,114.83-74.18-58.47-118.14-131.52-138.38-215.21,6.11,5.27,12.36,10.44,18.84,15.53,143.56,113.13,529.15,58.39,851.99,16.18,60.39-7.9,91.13,71.11,155.5,84.64,135.99,28.61,160.67-36.88,218.2-97.56"/>
        </g>
        <g class="cls-5">
          <path class="cls-7" d="M1501.73,1672.37c-90.96,23.03-190.64,35.76-295.13,35.76-256.8,0-484.51-76.74-625.73-194.98,31.19-59.21,64.15-118.42,97.86-177.03l820.38,213.91c-4.66,38.65-3.03,80.15,2.61,122.34"/>
        </g>
        <path class="cls-7" d="M997.12,2672.6c-203.22,0-406.06-44.73-502.1-120.4-76.85-60.56-126.31-139.9-147.01-235.84-18.43-85.42-14.45-186.83,11.83-301.38,54.51-237.6,199.53-506.19,303.87-687.54,4.78-8.31,15.38-11.16,23.68-6.38s11.16,15.38,6.39,23.68c-103.23,179.43-246.66,444.93-300.13,678-53,231.04-12.83,395.32,122.83,502.21,114.16,89.96,445.27,147.52,717.55,89.93,113.2-23.95,261.61-77.96,325.76-199.24,49.59-93.77,88.45-202.76,37.38-363.95-5.01-15.82-13.2-37.7-22.7-63.03-41.24-110.1-110.25-294.38-92.59-440.74,1.14-9.5,9.73-16.33,19.3-15.14,9.51,1.15,16.28,9.79,15.14,19.3-16.65,137.96,50.51,317.28,90.64,424.41,9.65,25.78,17.99,48.05,23.28,64.72,55.07,173.82,10.79,295.01-39.78,390.64-55.74,105.4-176.51,180.42-349.24,216.96-76.45,16.17-160.31,23.78-244.09,23.78Z"/>
        <path class="cls-6" d="M2074.99,1186.47c-73.22,391.36-495.29,504.03-973.24,414.62-477.95-89.42-830.8-347.07-757.58-738.42C414.35,487.58,738.01,104.74,1293.43,172.53c72.69-21.45,173.61-63.26,240.46-140.63,20.92-24.18,60.34-12.75,64.73,19.01,5.81,42.2,8.16,96.64-31.07,159,80.12-21.92,160.69-48.84,188.74-65.91,30.05-18.27,67.38,8.25,59.74,42.55-7.43,33.17-32.73,101.71-57.79,158.46,286.88,207.57,370.6,553.64,316.75,841.47"/>
        <g class="cls-5">
          <path class="cls-7" d="M1101.75,1601.11c-477.95-89.44-830.8-347.09-757.56-738.44,6.83-36.42,15.98-72.86,27.58-108.96-73.06,391.26,279.76,648.85,757.64,738.21,439.87,82.28,832.5-6.6,949.27-326.44-1.14,7.01-2.34,14.04-3.66,20.98-73.23,391.35-495.31,504.03-973.27,414.64"/>
        </g>
        <g class="cls-5">
          <path class="cls-2" d="M2009.52,1361.11c15.33-35.36,27.01-73.76,34.78-115.28,50.64-270.7-38.05-612.64-287.44-825.05-28.35-24.14-38.01-63.75-23.38-97.99,16.51-38.63,31.02-75.15,35.94-97.09,7.64-34.3-13.77-40.61-43.82-22.34-21.94,13.34-75.96,32.72-136.78,51.01-18.64,5.61-36.17-12.29-29.63-30.63,15.49-43.47,13.08-81.89,8.73-113.47-4.38-31.75-20.05-42.42-51.61-5.67-44.42,51.71-110.02,81.51-170.35,102-48.24,16.38-99.34,22.21-150.19,19.21-378.47-22.37-641.11,170.24-780.34,416.84,136.05-288.94,432.45-524.5,878-470.12,72.69-21.45,173.61-63.26,240.46-140.63,20.92-24.18,60.34-12.75,64.73,19.01,5.81,42.2,8.16,96.64-31.07,159,80.12-21.92,160.68-48.84,188.74-65.92,30.05-18.26,67.38,8.25,59.74,42.55-7.43,33.17-32.73,101.71-57.79,158.46,286.88,207.57,370.6,553.64,316.75,841.47-12.35,66.02-34.63,124.12-65.47,174.64"/>
        </g>
        <path class="cls-1" d="M1913.98,1101.56c-21.34,114.04-78.86,230.33-200.17,305.81-123.98,77.23-314.59,111.88-601.4,58.22h-.04c-283.81-53.1-448.53-152.78-536.92-268-88.36-115.17-100.44-245.92-78.87-361.19,4.38-23.43,10.62-46.08,18.54-67.73,69.8-191.7,269.92-310.37,477.01-271.62,113.26,21.19,207.64,85.55,269.1,172.89,88.91-59.21,200.14-85.1,313.4-63.91,204.54,38.26,347.17,217.13,346.63,418.01v.04c-.03,25.56-2.41,51.48-7.28,77.5"/>
        <path class="cls-7" d="M1306.17,1014.42c-6.65,35.53-61.96,69.39-120.33,58.46-58.38-10.92-97.71-62.48-91.06-98.01,6.65-35.53,56.76-41.59,115.14-30.67,58.38,10.92,102.91,34.68,96.26,70.21"/>
        <g class="cls-4">
          <path class="cls-3" d="M1250.16,983.65c-1.55,8.31-22.69,14.69-46.46,10.24-23.76-4.44-41.17-18.04-39.61-26.34,1.56-8.31,21.48-8.19,45.25-3.75s42.38,11.54,40.83,19.85"/>
        </g>
        <path class="cls-7" d="M894.63,1558.24c-90.9-21.08-178.67-56.89-259.54-105.07-40.43-24.09-79.28-51.16-115.47-81.72-36.14-30.56-69.81-64.53-98.57-102.66-28.78-38.02-53.55-79.6-70.94-124.44-17.59-44.68-29.06-91.99-32.63-139.9-3.86-47.89-.95-96.1,7.47-143.06,8.46-46.52,20.49-92.3,36.09-136.87,31.21-89.11,75.86-173.57,132.73-249.11,56.84-75.49,126.07-142.04,205.14-194.36,79.17-52.12,167.76-89.65,259.81-111.16,46.09-10.55,92.93-17.31,139.95-20.83,47.08-3.01,94.21-2.2,141.11.86,9.56.62,16.8,8.88,16.18,18.43-.62,9.49-8.77,16.7-18.24,16.18l-.39-.02c-45.4-2.47-90.86-2.68-136.08.61-45.16,3.69-90.01,10.44-134.01,20.8-87.93,21.03-171.78,57.58-247.07,107.22-75.21,49.85-141.17,113.33-195.47,185.54-54.32,72.25-97.07,153.24-126.92,238.67-14.91,42.71-26.85,86.53-35.1,130.96-8.11,44.01-10.99,88.82-7.65,133.14,6.29,88.79,40.72,174.31,94.92,245.42,26.76,35.87,58.42,68.17,92.7,97.45,34.32,29.28,71.45,55.46,110.33,78.88,78,46.72,161.87,83.04,246.91,118.53l.03.02c4.44,1.85,6.53,6.95,4.68,11.38-1.66,3.98-5.94,6.07-10,5.13"/>
        <path class="cls-7" d="M1765.86,329.08c32.36,23.06,63.15,48.38,91.88,75.93,28.68,27.59,55.32,57.33,79.58,88.92,48.51,63.17,87.52,133.64,115.54,208.13,55.99,149.18,70.24,312.7,44.45,469.48-6.37,39.24-16.36,78.71-30.86,116.31-14.45,37.68-33.35,73.79-56.5,107-23.1,33.25-50.41,63.56-81.01,89.88-30.52,26.42-64.02,49.12-99.25,68.23-70.6,38.27-147.58,62.22-225.45,76.42-77.87,14.39-157.56,18.86-235.71,8.98-4.78-.6-8.16-4.96-7.56-9.75.52-4.14,3.87-7.23,7.86-7.59h.05c77.36-7.09,153.77-12.2,228.97-26.07,74.94-14.12,148.24-37.55,214.38-73.94,66-36.23,124.64-85.85,166.67-147.7,21.15-30.75,38.39-64.14,51.58-99.16,3.55-8.66,6.3-17.62,9.16-26.55,3.09-8.85,5.28-17.99,7.71-27.05,2.61-9.01,4.32-18.28,6.29-27.47,2.12-9.11,3.61-18.55,5.22-27.92,24.86-150.08,11.27-307.13-42.09-449.56-26.63-71.17-63.03-138.71-108.92-199.24-45.82-60.57-100.81-114.1-162.22-159.12l-.1-.07c-7.72-5.66-9.4-16.51-3.73-24.24,5.61-7.66,16.34-9.36,24.05-3.87"/>
        <path class="cls-8" d="M1058.53,947.6c-40.87,120.25-145.8,130.7-285.51,158.62-87.67,17.5-152.88,55.53-197.57,91.36-88.36-115.17-100.44-245.92-78.87-361.19,4.38-23.43,10.62-46.08,18.54-67.73,91.45-65.24,226.69-119.02,396.89-65.48,124.57,39.21,175.86,158.12,146.53,244.42"/>
        <path class="cls-8" d="M1913.98,1101.56c-21.34,114.04-78.86,230.33-200.17,305.81-28.94-48.8-75.54-106.18-149.16-153.04-120.17-76.54-214.23-124.21-208.87-251.11,3.85-91.06,94.67-183.39,224.98-174.92,172.5,11.22,278.01,104.54,340.49,195.73v.04c-.03,25.56-2.41,51.48-7.28,77.5"/>
        <path class="cls-7" d="M1539.38,225.3c7.83-9.61,14.83-18.88,20.63-28.81,5.59-10.07,10.17-20.46,13.92-31.29,3.59-10.93,6.27-22.29,7.93-33.97,1.66-11.69,2.07-23.71,1.94-35.76-.12-12.06-1.26-24.23-2.84-36.35l-.62-4.55-.15-1.14-.18-.61-.3-1.23c-.1-.41-.14-.85-.26-1.24l-.49-1.09c-.29-.74-.5-1.53-.99-2.13-1.45-2.71-3.59-4.96-6.31-6.6-5.5-3.35-12.79-3.39-17.95-.38l-1.03.5-.91.75c-.6.5-1.32.83-1.83,1.53l-1.99,2.02-3.39,3.79-6.8,7.59c-2.3,2.5-4.74,4.86-7.1,7.3-38.19,38.77-85.16,67.93-134.9,87.86-24.92,9.99-50.65,17.63-76.74,23.28-13.06,2.77-26.23,5.01-39.49,6.74-6.64.85-13.29,1.53-20,2.04-3.35.26-6.72.49-10.12.65-3.48.17-6.62.3-10.6.33-9.58.07-17.4-7.63-17.47-17.21-.07-9.32,7.22-16.97,16.44-17.45l.56-.02c2.45-.13,5.73-.36,8.67-.63,3.02-.26,6.07-.59,9.11-.95,6.1-.69,12.2-1.63,18.31-2.55,12.2-1.94,24.36-4.37,36.39-7.27,24.13-5.59,47.67-13.36,70.48-22.59,22.74-9.4,44.64-20.66,65.15-33.91,10.36-6.49,20.1-13.82,29.73-21.28,9.38-7.74,18.59-15.71,27.13-24.34,2.14-2.15,4.36-4.24,6.43-6.45l6.16-6.71,3.08-3.35,2.25-2.33,2.54-2.52c1.63-1.73,3.66-3.12,5.61-4.57l2.97-2.11,3.23-1.76c17.42-9.46,39.3-8.48,55.71,1.81,8.26,5.09,15.25,12.53,19.74,21.21,1.27,2.12,2.09,4.39,2.92,6.67l1.21,3.42c.33,1.14.54,2.31.8,3.46l.7,3.48.33,1.75.14,1.26.56,5.02c1.44,13.41,2.4,26.95,2.24,40.62-.19,27.23-3.7,55.29-14.15,81.89-5.51,13.17-13.04,25.65-22.42,36.53-9.6,10.74-21.2,19.47-33.74,25.58-4.37,2.13-9.64.32-11.77-4.06-1.55-3.18-1.01-6.84,1.08-9.41l.41-.5Z"/>
        <path class="cls-7" d="M1741.87,332.77c4.93-7.1,9.3-14.84,13.54-22.78,4.1-8.06,7.9-16.39,11.37-24.96,6.83-17.18,12.85-34.98,18.06-53.13,2.58-9.08,5.12-18.2,7.43-27.41l3.37-13.85,1.6-6.95c.36-1.37.34-1.86.43-2.54.09-.66.2-1.31.33-1.97.47-5.16-1.07-9.91-4.08-14.13-3.23-4.01-8.06-7.19-13.15-8.15-5.12-.86-10.15-.3-15.3,2.62-8.58,4.99-17.21,9.92-25.99,14.61-17.5,9.47-35.58,18.02-54.19,25.53-18.66,7.38-37.91,13.69-57.91,17.69-19.94,3.96-40.74,5.86-61.34,3.2-4.76-.62-8.13-4.98-7.52-9.75.53-4.11,3.85-7.18,7.81-7.55l.32-.03c36.62-3.47,71.76-17.13,105.64-33.3,16.99-8.08,33.6-17.13,50.05-26.54,8.22-4.72,16.33-9.67,24.4-14.69,11.43-7.28,26.65-10.6,40.68-8.08,14.06,2.47,26.75,10.21,35.76,21.2,8.86,11.11,13.71,26.05,12.53,40.32l-.72,5.23c-.26,1.73-.56,3.65-.83,4.63l-1.65,7.25-3.49,14.48c-2.42,9.64-4.96,19.27-7.83,28.84-5.74,19.13-12.23,38.19-20.47,56.83-4.1,9.33-8.63,18.57-13.63,27.67-5.09,9.1-10.88,17.95-17.49,26.5-5.85,7.58-16.74,8.98-24.32,3.13-7.34-5.67-8.88-16.05-3.68-23.58l.25-.35Z"/>
        <path class="cls-7" d="M1718.44,1047.26c-2.81,2.35-4.8,3.9-7.18,5.7-2.32,1.7-4.66,3.28-7.01,4.84-4.7,3.15-9.62,5.81-14.56,8.47-9.95,5.17-20.39,9.4-31.17,12.79-21.58,6.67-44.64,9.71-67.83,8.7-11.59-.58-23.16-2.28-34.51-4.91-11.31-2.84-22.36-6.65-32.87-11.53-20.93-9.9-39.7-23.79-53.96-41.05-6.67-8.07-5.53-20.02,2.54-26.69,5.52-4.57,12.86-5.47,19.08-3.01l.85.35c17.89,7.14,34.52,13.51,51.31,18.04,8.43,2.13,16.79,4.03,25.23,5.41,8.45,1.33,16.93,2.27,25.51,2.85,17.16.91,34.66.22,52.47-2.03,8.91-1.06,17.88-2.57,26.91-4.26,4.56-.75,9.02-1.85,13.56-2.77,2.28-.46,4.51-1,6.74-1.52,2.17-.4,4.67-1.16,6.26-1.29l5.34-.45c10.1-.84,18.98,6.66,19.81,16.76.52,6.14-2.14,11.9-6.5,15.6"/>
        <path class="cls-7" d="M745.43,836.8c1.44.7,3.49,2.31,5.37,3.46,1.89,1.28,3.78,2.6,5.74,3.85,3.9,2.5,7.66,5.13,11.64,7.48,7.81,4.85,15.63,9.49,23.56,13.7,15.78,8.54,31.85,15.5,48.18,20.87,8.21,2.55,16.45,4.75,24.82,6.56,8.36,1.77,16.84,3.02,25.47,4.08,17.29,1.84,35.1,1.92,54.36,1.73h.9c10.47-.11,19.04,8.29,19.14,18.76.07,7.17-3.86,13.45-9.7,16.73-19.54,10.94-42.06,17.1-65.16,18.76-11.56.76-23.24.31-34.81-1.13-11.53-1.66-22.94-4.25-33.95-7.9-21.99-7.44-42.39-18.6-60.1-32.63-8.82-7.07-17.03-14.78-24.44-23.2-3.65-4.27-7.27-8.53-10.51-13.16-1.63-2.3-3.24-4.62-4.79-7.04-1.56-2.54-2.86-4.7-4.63-7.9-4.89-8.87-1.67-20.04,7.21-24.93,5.4-2.98,11.64-2.95,16.8-.48l4.91,2.4Z"/>
        <path class="cls-7" d="M1220.44,1152.27c-5.12,27.78-29.14,46.64-53.63,42.13-24.5-4.52-40.22-30.7-35.1-58.48,5.12-27.78,29.13-46.64,53.63-42.12,24.5,4.51,40.22,30.69,35.1,58.47"/>
        <path class="cls-6" d="M1199.36,2337.78c-47.04-233.07-374.47-298.4-427.29-7.17"/>
        <g class="cls-5">
          <path class="cls-2" d="M1199.37,2337.78l-9.84-.19c-79.86-179.92-332.05-224.54-415.37-17.67,58.84-278.9,378.77-212.32,425.2,17.86"/>
        </g>
        <path class="cls-7" d="M1199.34,2355.12c-8.09,0-15.32-5.68-16.98-13.91-24.61-121.94-128.22-187.22-213.92-187.22-.56,0-1.1,0-1.66,0-90.99.9-157.4,68.08-177.65,179.7-1.71,9.42-10.74,15.69-20.16,13.97-9.42-1.71-15.68-10.74-13.97-20.16,23.45-129.29,102.49-207.12,211.44-208.19.73,0,1.46-.01,2.19-.01,116.65,0,222.91,92.06,247.73,215.04,1.89,9.39-4.18,18.54-13.57,20.43-1.16.23-2.31.35-3.45.35Z"/>
        <path class="cls-2" d="M1288.83,2392.65c-20.61-128.4-58.7-310.77-115.85-331.61-76.48-27.91-193.33,143.72-183.36,293.83,5.66,85.16,316.81,147.44,299.21,37.78"/>
        <path class="cls-2" d="M1288.83,2392.64c10.11,62.97-88.12,69.28-174.75,47.08-64.23-16.46-122.04-48.59-124.44-84.84-.8-11.8-.78-23.75-.08-35.7,8.19-140.19,112.95-283.86,183.41-258.13,57.17,20.83,95.27,203.2,115.86,331.58"/>
        <g class="cls-5">
          <path class="cls-7" d="M1272.02,2336.71c-2.07,31.47-78.97,73.33-157.95,103.01-64.23-16.47-122.04-48.59-124.44-84.84-.8-11.79-.78-23.75-.08-35.7,30.31-68.14,76.52-128.94,153.76-137.2,79.73-8.53,133.75,76.67,128.71,154.73"/>
        </g>
        <path class="cls-7" d="M1117.56,2444.17c-8.1,0-15.34-5.7-16.99-13.95-41.18-206.45,18.54-368.75,21.1-375.57,3.37-8.96,13.36-13.5,22.34-10.12,8.96,3.37,13.49,13.36,10.13,22.32h0c-.59,1.58-58.7,160.29-19.55,356.58,1.88,9.39-4.22,18.53-13.61,20.4-1.15.23-2.29.34-3.41.34Z"/>
        <path class="cls-7" d="M1196.88,2485.67c-.83,0-1.67-.06-2.52-.19-9.48-1.38-16.04-10.19-14.65-19.66,29.03-198.71-13.83-394.07-14.27-396.03-2.09-9.35,3.79-18.62,13.13-20.71,9.3-2.1,18.61,3.78,20.71,13.12,1.84,8.21,44.73,203.36,14.74,408.62-1.26,8.63-8.67,14.84-17.14,14.84Z"/>
        <path class="cls-7" d="M1199.64,2468.59c-48.77,0-105.55-12.76-149.8-32.86-48.72-22.13-75.53-49.69-77.52-79.72-7.82-117.71,57.24-243.01,122-291.59,29.65-22.25,58.92-29.07,84.61-19.67,18.81,6.86,76.07,27.8,127.02,345.15h0c3.75,23.4-4.12,43.88-22.17,57.66-19.21,14.66-49.68,21.04-84.14,21.04ZM1155.63,2075.37c-14.61,0-29.56,8.59-40.49,16.8-57.77,43.34-115.03,158.77-108.2,261.54,1.03,15.54,22.97,34.87,57.25,50.44,70.68,32.09,167.17,39.79,198.56,15.83,7.95-6.07,10.72-13.65,8.96-24.58h0c-44.28-275.86-91.3-313.19-104.66-318.07-3.73-1.36-7.56-1.96-11.42-1.96Z"/>
        <path class="cls-6" d="M1290.8,2434.94c-4.76,61.87-27.28,118.19-54.18,156.89-50.73,68.81-174.42,71.24-308.69,74.45-134.28,3.17-364.04-16.41-499.06-173.48l104.67-31.01,461.06-136.7c31.7-70.21,83.5-92.22,161.08-88.07,59.21,3.17,107.28,38.04,122.53,85.69,12.07,37.72,15.38,75.95,12.59,112.22"/>
        <path class="cls-7" d="M442.01,2481.49c45.22,51.76,104.33,90.29,168.64,116.02,64.46,25.87,133.82,39.65,203.69,45.87,34.98,3.08,70.2,4.24,105.4,3.65,35.59-.81,71.51-1.58,106.72-3.59,35.22-2.09,70.21-5.38,103.31-12.98,32.82-7.62,64.34-20.22,84.5-42.32,2.66-2.78,4.67-5.41,6.95-8.44l6.66-10.19,6.26-10.83c2.03-3.65,3.85-7.45,5.79-11.16,7.45-15.06,13.68-30.8,18.79-46.92,4.89-16.18,8.51-32.73,11-49.43,2.23-16.74,3.13-33.59,2.76-50.39-.17-4.19-.54-8.37-.79-12.56l-.42-6.28-.84-6.23c-.59-4.14-1.03-8.32-1.71-12.45l-2.5-12.29c-.7-4.14-1.91-8.14-3.03-12.16-1.15-3.92-2.15-8.29-3.42-11.85-2.24-7.05-5.74-13.67-9.6-20.07-16.14-25.48-44.85-42.84-75.72-49.05-3.9-.64-7.8-1.4-11.74-1.8-3.99-.32-7.79-.83-12.15-.88-8.48-.4-16.9-.42-25.19-.02-16.56.81-32.62,3.48-47.2,8.87-29.49,10.25-51.11,34.23-65.34,64.02-1.96,3.68-3.41,7.37-4.93,11.05-1.54,3.68-2.73,7.7-4.14,11.52-1.14,4.02-2.39,7.98-3.46,12.06-.97,4.12-2.1,8.17-2.94,12.35-3.62,16.64-5.98,33.77-7.57,50.95-1.64,17.19-2.71,34.47-3.46,51.77-.65,17.32-.74,34.59-.46,52.14v.19c.08,4.86-3.8,8.86-8.65,8.94-3.75.06-6.99-2.25-8.32-5.54-7.03-17.58-10.66-36.12-12.67-54.62-2.11-18.53-2.19-37.18-.88-55.72,1.4-18.54,3.95-37.01,7.79-55.45.9-4.61,2.14-9.21,3.2-13.82,1.17-4.61,2.58-9.21,3.87-13.82,1.62-4.61,2.98-9.2,4.85-13.82,1.86-4.62,3.72-9.27,5.93-13.54,8.31-17.44,19.09-34.48,33.38-49.07,7.01-7.41,15.2-13.77,23.69-19.58,4.4-2.63,8.81-5.35,13.38-7.64,4.66-2.09,9.21-4.55,14.03-6.11,19.04-7.18,38.78-10.41,57.97-11.48,9.62-.52,19.15-.55,28.58-.18,4.61.03,9.73.59,14.67.99,4.97.49,9.91,1.37,14.84,2.19,19.61,4.01,38.91,11,56.11,22,8.73,5.26,16.66,11.88,24.2,18.86,7.36,7.23,14.03,15.23,19.77,23.96,5.52,8.85,10.42,18.21,13.74,28.23,1.75,4.89,2.75,9.28,4.15,13.95,1.31,4.6,2.7,9.19,3.56,13.9l2.94,14.04c.82,4.71,1.37,9.45,2.06,14.18l.98,7.1.55,7.13c.32,4.76.75,9.52.97,14.27.57,19.05-.34,38.08-2.74,56.93-2.67,18.79-6.62,37.36-11.99,55.55-5.59,18.11-12.46,35.84-20.83,52.97-2.21,4.24-4.28,8.52-6.6,12.7l-7.22,12.43-8.07,12.31c-3.06,4.16-6.57,8.62-10.11,12.32-7.12,7.67-15.02,14.54-23.42,20.36-8.41,5.81-17.19,10.75-26.14,15.02-17.94,8.42-36.42,14.09-54.83,18.4-36.88,8.41-73.59,11.67-109.9,13.82-36.39,2.03-72.2,2.75-108.3,3.54-36.5.59-73.05-.65-109.51-3.9-72.8-6.82-145.55-21.94-214.18-50.03-17.16-6.95-33.95-14.91-50.34-23.68-16.45-8.65-32.31-18.5-47.67-29.07-15.43-10.49-29.89-22.4-43.88-34.79-13.95-12.46-26.8-26.11-39.09-40.2-6.3-7.22-5.55-18.17,1.66-24.47,7.21-6.3,18.17-5.55,24.47,1.66l.16.19Z"/>
        <path class="cls-2" d="M1205.77,2473.83c-2.28,44.33-31.48,77.95-65.19,75.09-33.71-2.85-59.19-41.1-56.91-85.43,2.28-44.32,31.47-77.94,65.19-75.09,33.72,2.86,59.2,41.1,56.91,85.43"/>
        <path class="cls-2" d="M1098.69,2367.07c-2.42,17.25-14.88,29.13-27.84,26.53-12.96-2.59-21.51-18.67-19.09-35.92,2.41-17.25,14.88-29.13,27.84-26.53,12.96,2.59,21.51,18.67,19.09,35.92"/>
        <path class="cls-2" d="M1173.39,2333.75c-2.42,17.25-14.88,29.13-27.84,26.53-12.96-2.59-21.51-18.67-19.1-35.92,2.42-17.25,14.88-29.13,27.85-26.53,12.96,2.59,21.51,18.67,19.09,35.92"/>
        <path class="cls-2" d="M1241.87,2378.01c-2.37,16.93-14.61,28.59-27.33,26.04s-21.11-18.33-18.74-35.26c2.37-16.93,14.61-28.58,27.33-26.04,12.72,2.54,21.11,18.33,18.74,35.26"/>
        <g class="cls-5">
          <path class="cls-7" d="M1290.8,2434.94c-4.76,61.87-27.28,118.19-54.18,156.89-50.73,68.81-174.42,71.24-308.69,74.45-134.28,3.17-364.04-16.41-499.06-173.48l104.67-31.01c301.65,210.27,462.6-71.42,462.6-71.42,0,0,22.61,179.36,161.64,151.61,74.88-14.91,114.6-70.82,133.02-107.05"/>
        </g>
        <path class="cls-6" d="M567.81,2666.57c-133.67,44.43-383.43,54.22-458.54-38.75-22.75-28.16-19.67-75.11,10.67-126.53,31.15-52.82,90.96-110.36,180.99-157.31,94.65-49.37,141.18-128.07,154.98-162.58,38.51-96.28,59.96-198.85,88.68-338.53,8.06-39.35,16.74-81.6,26.52-127.47l288.09,24.15c-.61,44.15-.84,101.96,1.08,184.82,10.67,461.62-88.22,674.27-292.47,742.2"/>
        <g class="cls-5">
          <path class="cls-2" d="M397.59,2323.37c-3.76,3.63-7.76,7.27-11.93,10.9-50.82,44.19-62.05,118.72-25.64,175.38,15.35,23.88,21.61,41.84,21.99,43.02-63.59-51.89-181.93-55.81-262.07-51.38,31.15-52.82,90.96-110.36,180.99-157.31,94.65-49.37,141.18-128.07,154.98-162.58,38.51-96.28,59.96-198.85,88.68-338.53,16.6,217.13-69.7,405.9-147,480.5"/>
        </g>
        <g class="cls-5">
          <path class="cls-7" d="M567.81,2666.57c-133.67,44.43-383.43,54.22-458.54-38.75-16.74-20.7-19.49-51.56-7.74-86.9,96.09,66.34,311.12,54.45,431.69,14.36,204.26-67.93,303.14-280.63,292.47-742.2-.34-14.58-.62-28.39-.83-41.47-.3-18.76,15.66-33.63,34.35-32.05-.61,44.15-.84,101.96,1.08,184.82,10.67,461.62-88.22,674.27-292.47,742.2"/>
        </g>
        <path class="cls-7" d="M867.87,1739.65c5,54.28,7.17,108.32,9.04,162.48,1.79,54.22,2.22,109.16.63,163.82-1.63,54.73-5.19,109.53-12.06,164.17-7.15,54.58-17.08,109.13-33.34,162.44-8.16,26.62-17.53,53.02-29.32,78.58-11.78,25.53-25.55,50.34-41.85,73.66-16.28,23.3-35.12,45.06-56.42,64.24-21.28,19.21-44.99,35.77-70.24,49.23-25.2,13.49-52.05,23.88-79.09,31.61-27.04,7.83-54.36,13.46-81.81,17.84-27.46,4.4-55.11,7.14-82.83,8.74-27.73,1.58-55.57,1.7-83.46.16-27.87-1.49-55.81-4.73-83.56-10.67-6.95-1.32-13.85-3.29-20.76-4.95-6.87-2.08-13.78-3.86-20.59-6.37-13.67-4.57-27.18-10.33-40.19-17.55-12.98-7.24-25.7-15.76-36.76-26.88-5.43-5.63-10.72-11.23-15.64-18.92-4.63-7.45-7.83-15.54-10.1-23.69-3.99-16.39-3.88-32.82-1.16-48,2.69-15.24,7.54-29.56,13.58-43.03,12.17-26.95,28.9-50.72,47.64-72.15,18.74-21.5,39.76-40.53,61.88-57.89,22.21-17.25,45.7-32.61,69.95-46.43l35.51-19.54c5.6-3.2,10.95-6.82,16.44-10.2,5.33-3.63,10.57-7.4,15.82-11.14,20.61-15.54,39.4-33.47,56.09-53.16,8.19-9.98,15.97-20.28,23.04-31.03,6.96-10.77,13.35-21.96,18.57-33.26,1.24-2.9,2.43-5.44,3.63-8.61l3.54-9.34c2.36-6.23,4.78-12.43,6.91-18.76,2.17-6.3,4.47-12.56,6.54-18.9l6.15-19.07c7.89-25.55,14.8-51.47,21.27-77.55,6.43-26.12,12.52-52.4,18.29-78.8l17.73-79.3,9.18-39.68c3.3-13.18,6.38-26.42,9.88-39.57,6.79-26.35,14.1-52.59,22.62-78.57,1.5-4.57,6.43-7.07,11-5.57,3.97,1.3,6.36,5.19,5.96,9.18-2.74,27.16-6.57,54.07-10.75,80.91-1.98,13.45-4.38,26.81-6.55,40.23l-7.27,40.12-7.75,40.07-8.28,40.03c-5.9,26.64-12.08,53.28-18.84,79.85-6.96,26.54-14.56,52.98-22.9,79.26l-6.5,19.66c-2.19,6.54-4.62,13.02-6.92,19.54-2.26,6.52-4.81,12.96-7.32,19.41l-3.76,9.68c-1.22,3.17-2.83,6.83-4.28,10.16-12.27,26.64-28.28,50.24-46.41,72.29-18.37,21.79-39.05,41.61-61.78,58.83-5.78,4.17-11.56,8.35-17.45,12.37-6.05,3.76-11.96,7.76-18.14,11.31l-35.81,19.84c-22.89,13.11-44.93,27.62-65.58,43.74-20.54,16.22-39.91,33.86-56.81,53.38-16.94,19.42-31.65,40.7-41.77,63.33-5.04,11.29-8.87,22.93-10.87,34.45-2.08,11.52-1.79,22.82.61,32.85,1.45,4.89,3.27,9.53,5.82,13.63.62,1.05,1.42,1.95,2.09,2.95l1.05,1.48,1.44,1.57c1.97,2.07,3.69,4.32,5.81,6.29,8.11,8.18,18.19,14.96,28.89,20.88,10.74,5.93,22.32,10.89,34.41,14.88,5.95,2.2,12.21,3.77,18.34,5.63,6.29,1.48,12.47,3.26,18.87,4.45,25.38,5.38,51.57,8.38,77.92,9.72,52.72,2.75,106.16-.69,158.52-8.87,26.16-4.18,52.13-9.58,77.27-16.88,25.16-7.21,49.22-16.6,71.92-28.74,45.45-24.09,84.12-59.49,113.59-102.03,14.82-21.21,27.51-44.06,38.47-67.84,10.9-23.82,19.95-48.64,27.81-73.89,15.73-50.56,25.64-103.22,32.86-156.24,6.96-53.12,10.73-106.82,12.61-160.65.56-13.45.82-26.93,1.02-40.4.33-13.48.33-26.96.33-40.45.18-27.04-.66-53.82-.74-81.16-.29-54.45,1.21-109.04,7.78-163.39.58-4.78,4.92-8.19,9.7-7.61,4.15.5,7.28,3.85,7.64,7.86"/>
        <path class="cls-2" d="M480.06,2689.69c-84.95,13.19-331.77,42.94-423.34,5.64-42.47-17.34-46.9-53.47-30.63-92.13,20.42-48.72,73.61-101.36,124.53-125.14,89.66-41.82,170.31,7.65,229.34,69.29,61.92,64.53,100.1,142.34,100.1,142.34"/>
        <g class="cls-5">
          <path class="cls-7" d="M480.06,2689.69c-84.95,13.19-331.77,42.94-423.34,5.64-42.47-17.34-46.9-53.47-30.63-92.13,1.26,21.72,15.53,48.07,71.57,59.91,89,18.79,227.75,11.66,282.63-66.76,9.61-13.7,7-31.61-.33-49,61.92,64.53,100.1,142.34,100.1,142.34"/>
        </g>
        <path class="cls-7" d="M201.16,2730.91c-59.74,0-115.35-5-151.01-19.54-31.56-12.86-49.37-36.93-50.13-67.79-1.65-66.64,74.18-149,143.28-181.24h0c82.55-38.51,170.22-11.68,253.58,77.58,60.47,64.76,97.23,139.01,98.76,142.14,2.43,4.95,2.36,10.76-.19,15.65-2.55,4.89-7.28,8.28-12.72,9.13-22.04,3.42-160.26,24.06-281.57,24.07ZM217.39,2480.16c-19.27,0-39.15,4.16-59.42,13.62-63.34,29.55-124.4,103.33-123.27,148.95.42,17.16,9.5,28.76,28.54,36.53,75.22,30.64,275.3,13,389.76-3.09-31.31-54.64-123.19-196.01-235.61-196.01ZM150.64,2478.06h.05-.05Z"/>
        <path class="cls-7" d="M180.94,2729.65c-1.97,0-3.97-.34-5.92-1.05-11.22-4.08-17.73-14.34-17.42-27.45,1.1-46.3,90.34-144.9,206.68-181.04,9.16-2.83,18.87,2.28,21.71,11.42,2.84,9.15-2.27,18.87-11.42,21.71-110.59,34.36-177.54,122.65-182.07,146.13,5.13,4.58,7.23,12,4.74,18.85-2.56,7.05-9.21,11.43-16.3,11.43Z"/>
        <path class="cls-7" d="M69.11,2717.02c-1.49,0-3-.2-4.51-.6-5.76-1.54-19.41-7.48-21.83-29.11-5.01-44.86,46.47-160.69,193.02-237.85,8.47-4.46,18.96-1.21,23.43,7.27,4.46,8.48,1.21,18.96-7.27,23.43-140.42,73.93-180.17,182.34-174.73,204.19,6.99,3.7,10.76,11.86,8.62,19.82-2.08,7.74-9.08,12.85-16.74,12.85Z"/>
      </g>
      <g>
        <path class="cls-7" d="M2312.54,592.7l-148.74,32.61-6.55-29.86,58.5-139.13-82.72,18.14-9.07-41.37,145.73-31.95,6.48,29.58-59.25,139.59,86.56-18.98,9.07,41.36Z"/>
        <path class="cls-7" d="M2440.72,366.93l-105.37,11.34-2.28-21.15,50.97-91.87-58.61,6.31-3.15-29.3,103.24-11.11,2.25,20.96-51.53,92.12,61.33-6.6,3.15,29.3Z"/>
        <path class="cls-7" d="M2650.41,423.55l-121.27,13.05-2.62-24.34,58.66-105.72-67.45,7.26-3.63-33.72,118.82-12.79,2.59,24.12-59.3,106.02,70.58-7.6,3.63,33.72Z"/>
        <path class="cls-7" d="M2467.47,595.03l-63.06,6.79-1.36-12.66,30.5-54.97-35.07,3.78-1.88-17.53,61.78-6.65,1.35,12.54-30.84,55.12,36.7-3.95,1.89,17.54Z"/>
      </g>
    </g>
  </g>
</svg>